<svg width="40" height="41" viewBox="0 0 40 41" fill="none" xmlns="http://www.w3.org/2000/svg">
<g id="fi_3729270" clip-path="url(#clip0_7_2107)">
<g id="Group">
<path id="Vector" d="M32.5 40.75H7.5C3.3575 40.75 0 37.3925 0 33.25V8.25C0 4.1075 3.3575 0.75 7.5 0.75H32.5C36.6425 0.75 40 4.1075 40 8.25V33.25C40 37.3925 36.6425 40.75 32.5 40.75Z" fill="#F2E6E7"/>
</g>
<path id="Vector_2" d="M27.2412 23.2C26.7575 23.5 26.3 23.7338 25.8912 23.9C25.6075 24.025 25.3 24.0838 25 24.0838C24.7 24.0838 24.3913 24.025 24.1088 23.9C23.3838 23.6 22.5 23.1 21.6425 22.4163H13.6837L14.9175 19.5825C15.0512 19.2825 15.3513 19.0825 15.6763 19.0825H18.96C18.7263 18.5663 18.5437 18.0075 18.4438 17.4163H15.675C14.6838 17.4163 13.7837 18.0075 13.3837 18.9163L11.7338 22.7075C11.725 22.7238 11.7338 22.7413 11.725 22.7663C10.7088 23.2838 10 24.325 10 25.5413V28.6663C10 29.8163 10.9337 30.75 12.0837 30.75C13.2337 30.75 14.1675 29.8163 14.1675 28.6663V28.25H24.1675V28.6663C24.1662 29.8163 25.1 30.75 26.25 30.75C27.4 30.75 28.3337 29.8163 28.3337 28.6663V25.5413C28.3337 24.6 27.9087 23.7588 27.2412 23.2ZM15 26.5838H13.3337C12.875 26.5838 12.5 26.2088 12.5 25.75C12.5 25.2913 12.875 24.9163 13.3337 24.9163H15C15.4588 24.9163 15.8337 25.2913 15.8337 25.75C15.8337 26.2088 15.4588 26.5838 15 26.5838ZM25 26.5838H23.3337C22.875 26.5838 22.5 26.2088 22.5 25.75C22.5 25.2913 22.875 24.9163 23.3337 24.9163H25C25.4587 24.9163 25.8337 25.2913 25.8337 25.75C25.8337 26.2088 25.4587 26.5838 25 26.5838Z" fill="#027371"/>
<path id="Vector_3" d="M29.5762 12.2712L25.2012 10.7837C25.0712 10.7388 24.93 10.7388 24.7988 10.7837L20.4238 12.2712C20.17 12.3575 20 12.595 20 12.8637V16.2125C20 20.3 24.5613 22.285 24.7563 22.3687C24.9138 22.435 25.0875 22.435 25.245 22.3687C25.4387 22.285 30 20.2987 30 16.2112V12.8637C30 12.595 29.83 12.3575 29.5762 12.2712ZM27.7387 15.4312L25.4475 18.3475C25.155 18.72 24.6087 18.7737 24.25 18.465L22.7912 17.215C22.4412 16.915 22.4 16.39 22.7012 16.04C23.0012 15.6912 23.5275 15.65 23.875 15.95L24.6738 16.6337L26.4287 14.4012C26.7125 14.04 27.2363 13.9762 27.5988 14.2612C27.96 14.5462 28.0238 15.07 27.7387 15.4312Z" fill="#FD907E"/>
</g>
<defs>
<clipPath id="clip0_7_2107">
<rect width="40" height="40" fill="white" transform="translate(0 0.75)"/>
</clipPath>
</defs>
</svg>
