<svg width="18" height="18" viewBox="0 0 18 18" fill="none" xmlns="http://www.w3.org/2000/svg">
<g id="Group">
<g id="Group_2">
<path id="Vector" d="M14.6357 9.78822C14.3069 9.78818 14.0636 9.51295 14.0624 9.18416C14.0577 7.78498 13.5088 6.46854 12.5158 5.47549C11.5227 4.48244 10.2063 3.93354 8.80711 3.92881C8.47833 3.92775 8.20309 3.68439 8.20309 3.35561V0.442871C3.53184 0.753066 -0.155387 4.71846 0.00504314 9.50268C0.157192 14.0402 3.9511 17.8341 8.48864 17.9863C13.2729 18.1467 17.2382 14.4595 17.5484 9.78822H14.6357ZM4.23149 4.64471C4.46032 4.41588 4.83129 4.41588 5.06012 4.64471C5.28899 4.87354 5.28899 5.24451 5.06012 5.47334C4.83129 5.70217 4.46032 5.70217 4.23149 5.47334C4.00266 5.24451 4.0027 4.87354 4.23149 4.64471ZM2.92965 9.78818C2.60606 9.78818 2.34372 9.52584 2.34372 9.20225C2.34372 8.87857 2.60606 8.61631 2.92965 8.61631C3.25325 8.61631 3.51559 8.87857 3.51559 9.20225C3.51559 9.52584 3.25325 9.78818 2.92965 9.78818ZM5.06012 13.7598C4.83129 13.9886 4.46032 13.9886 4.23149 13.7598C4.00266 13.5309 4.00266 13.1599 4.23149 12.9311C4.46032 12.7022 4.83129 12.7022 5.06012 12.9311C5.28899 13.1599 5.28899 13.5309 5.06012 13.7598ZM8.78903 15.6476C8.46543 15.6476 8.20309 15.3852 8.20309 15.0616C8.20309 14.738 8.46543 14.4757 8.78903 14.4757C9.11262 14.4757 9.37497 14.738 9.37497 15.0616C9.37497 15.3852 9.11262 15.6476 8.78903 15.6476ZM9.59282 13.2269C6.7084 13.7781 4.21317 11.2829 4.76434 8.39846C5.07067 6.79537 6.38219 5.48393 7.9852 5.1776C10.8696 4.62643 13.3648 7.12166 12.8137 10.006C12.5073 11.6091 11.1959 12.9205 9.59282 13.2269ZM13.3466 13.7598C13.1177 13.9886 12.7468 13.9886 12.5179 13.7598C12.2891 13.5309 12.2891 13.1599 12.5179 12.9311C12.7468 12.7022 13.1177 12.7022 13.3466 12.9311C13.5754 13.1599 13.5754 13.5309 13.3466 13.7598Z" fill="#027371"/>
</g>
</g>
</svg>
