<svg width="32" height="32" viewBox="0 0 32 32" fill="none" xmlns="http://www.w3.org/2000/svg">
<g id="fi_5159051" clip-path="url(#clip0_7_2094)">
<g id="Group">
<path id="Vector" d="M17.788 15.8253L18.8731 14.9375H17.454C17.0598 14.9375 16.7077 14.6909 16.573 14.3204L15.9995 12.7434L15.4261 14.3204C15.2914 14.6909 14.9393 14.9375 14.5451 14.9375H13.126L14.2111 15.8253C14.5194 16.0776 14.6346 16.497 14.4985 16.8712L13.8109 18.7623L15.5027 17.7049C15.8066 17.515 16.1924 17.5149 16.4964 17.7049L18.1882 18.7623L17.5006 16.8712C17.3645 16.4969 17.4797 16.0775 17.788 15.8253Z" fill="#027371"/>
<path id="Vector_2" d="M16.0003 6.43799C10.7278 6.43799 6.43823 10.7276 6.43823 16.0001C6.43823 21.2726 10.7278 25.5622 16.0003 25.5622C21.2729 25.5622 25.5624 21.2726 25.5624 16.0001C25.5624 10.7276 21.2729 6.43799 16.0003 6.43799ZM22.0937 14.7257L19.4906 16.8556L20.8811 20.6795C21.1046 21.2938 20.6464 21.9374 20 21.9374C19.8282 21.9374 19.6559 21.8903 19.5033 21.7949L16.0003 19.6055L12.4973 21.7949C12.158 22.0069 11.7216 21.9802 11.4106 21.7285C11.0996 21.4768 10.9827 21.0555 11.1194 20.6795L12.5099 16.8556L9.90684 14.7257C9.60017 14.4748 9.48436 14.0582 9.6176 13.685C9.75078 13.3118 10.1043 13.0627 10.5005 13.0627H13.8892L15.1193 9.67998C15.254 9.30949 15.6061 9.06288 16.0003 9.06288C16.3945 9.06288 16.7466 9.30949 16.8813 9.67998L18.1114 13.0627H21.5001C21.8963 13.0627 22.2498 13.3118 22.383 13.685C22.5162 14.0582 22.4005 14.4748 22.0937 14.7257Z" fill="#027371"/>
<path id="Vector_3" d="M30.9299 12.794C29.8272 11.3151 29.088 9.55733 28.7923 7.71079C28.4268 5.42832 26.6351 3.58327 24.2892 3.20766C22.4426 2.91198 20.6848 2.17276 19.2059 1.07006C17.3075 -0.345508 14.7224 -0.36782 12.7939 1.07006C11.315 2.17276 9.55727 2.91198 7.71072 3.20766C5.42832 3.57308 3.58327 5.36476 3.20766 7.71072C2.91205 9.55727 2.17283 11.315 1.07006 12.794C-0.345508 14.6924 -0.36782 17.2775 1.07006 19.206C2.17283 20.6849 2.91198 22.4427 3.20766 24.2892C3.57314 26.5717 5.36488 28.4167 7.71079 28.7923C9.55734 29.0879 11.3151 29.8271 12.794 30.9299C14.6925 32.3455 17.2776 32.3678 19.2061 30.9299C20.685 29.8271 22.4427 29.088 24.2892 28.7923C26.5717 28.4268 28.4167 26.6351 28.7924 24.2892C29.088 22.4426 29.8273 20.6848 30.93 19.206C30.93 19.1592 31.9994 17.9898 31.9994 15.9999C31.9994 14.8409 31.6296 13.7322 30.9299 12.794ZM16 27.437C9.69358 27.437 4.56298 22.3064 4.56298 16C4.56298 9.69358 9.69358 4.56298 16 4.56298C22.3064 4.56298 27.437 9.69358 27.437 16C27.437 22.3064 22.3064 27.437 16 27.437Z" fill="#027371"/>
</g>
</g>
<defs>
<clipPath id="clip0_7_2094">
<rect width="32" height="32" fill="white"/>
</clipPath>
</defs>
</svg>
