<svg width="24" height="24" viewBox="0 0 24 24" fill="none" xmlns="http://www.w3.org/2000/svg">
<g id="cart-fill-frame">
<path id="cart-fill" fill-rule="evenodd" clip-rule="evenodd" d="M0 0.8C0 0.358172 0.358172 0 0.8 0H3.2C3.56709 0 3.88708 0.249838 3.97611 0.605972L4.62462 3.2H23.2C23.438 3.2 23.6636 3.30596 23.8156 3.48909C23.9676 3.67223 24.0302 3.91352 23.9863 4.14743L21.5863 16.9474C21.5154 17.3258 21.185 17.6 20.8 17.6H19.2H8H6.4C6.01503 17.6 5.68465 17.3258 5.6137 16.9474L3.2181 4.17088L2.57538 1.6H0.8C0.358172 1.6 0 1.24183 0 0.8ZM8 17.6C6.23269 17.6 4.8 19.0327 4.8 20.8C4.8 22.5673 6.23269 24 8 24C9.76731 24 11.2 22.5673 11.2 20.8C11.2 19.0327 9.76731 17.6 8 17.6ZM19.2 17.6C17.4327 17.6 16 19.0327 16 20.8C16 22.5673 17.4327 24 19.2 24C20.9673 24 22.4 22.5673 22.4 20.8C22.4 19.0327 20.9673 17.6 19.2 17.6ZM8 19.2C7.11634 19.2 6.4 19.9163 6.4 20.8C6.4 21.6837 7.11634 22.4 8 22.4C8.88366 22.4 9.6 21.6837 9.6 20.8C9.6 19.9163 8.88366 19.2 8 19.2ZM19.2 19.2C18.3163 19.2 17.6 19.9163 17.6 20.8C17.6 21.6837 18.3163 22.4 19.2 22.4C20.0837 22.4 20.8 21.6837 20.8 20.8C20.8 19.9163 20.0837 19.2 19.2 19.2Z" fill="#A6B7D4"/>
</g>
</svg>
