<svg width="24" height="24" viewBox="0 0 24 24" fill="none" xmlns="http://www.w3.org/2000/svg">
<g id="la:copyright-solid">
<path id="Vector" d="M12 2.25C6.624 2.25 2.25 6.624 2.25 12C2.25 17.376 6.624 21.75 12 21.75C17.376 21.75 21.75 17.376 21.75 12C21.75 6.624 17.376 2.25 12 2.25ZM12 3.75C16.5645 3.75 20.25 7.4355 20.25 12C20.25 16.5645 16.5645 20.25 12 20.25C7.4355 20.25 3.75 16.5645 3.75 12C3.75 7.4355 7.4355 3.75 12 3.75ZM11.9295 7.5C9.4365 7.5 7.4295 9.507 7.4295 12C7.4295 14.493 9.4365 16.5 11.9295 16.5C13.7288 16.5 15.267 15.4215 15.984 13.8983L14.625 13.266C14.1412 14.2935 13.131 15 11.9295 15C10.2218 15 8.9295 13.7078 8.9295 12C8.9295 10.2922 10.2218 9 11.9295 9C13.131 9 14.142 9.70575 14.625 10.7347L15.9847 10.1017C15.2662 8.5785 13.7288 7.5 11.9288 7.5H11.9295Z" fill="#4B76E5"/>
</g>
</svg>
