<svg width="22" height="22" viewBox="0 0 22 22" fill="none" xmlns="http://www.w3.org/2000/svg">
<g id="fi_4212257">
<g id="40-Fast-delivery">
<path id="Vector" d="M20.2711 10.363L18.8061 7.04155C18.7548 6.92376 18.6705 6.82341 18.5634 6.75267C18.4563 6.68192 18.3311 6.64382 18.2028 6.64298H14.6563L14.8684 4.7232C14.8789 4.63 14.8695 4.53565 14.8409 4.44634C14.8124 4.35704 14.7653 4.2748 14.7027 4.20505C14.6407 4.13624 14.5651 4.08118 14.4806 4.04343C14.3961 4.00568 14.3047 3.98606 14.2122 3.98584H5.08399C4.90817 3.98584 4.73956 4.05583 4.61524 4.1804C4.49092 4.30498 4.42108 4.47395 4.42108 4.65013C4.42108 4.82631 4.49092 4.99527 4.61524 5.11985C4.73956 5.24442 4.90817 5.31441 5.08399 5.31441H8.3985C8.57431 5.31441 8.74293 5.3844 8.86725 5.50898C8.99156 5.63355 9.0614 5.80252 9.06141 5.9787C9.0614 6.15488 8.99156 6.32384 8.86725 6.44842C8.74293 6.573 8.57431 6.64298 8.3985 6.64298H3.75818C3.58237 6.64298 3.41375 6.71297 3.28944 6.83755C3.16512 6.96213 3.09528 7.13109 3.09528 7.30727C3.09528 7.48345 3.16512 7.65241 3.28944 7.77699C3.41375 7.90157 3.58237 7.97155 3.75818 7.97155H10.3872C10.563 7.97155 10.7316 8.04154 10.856 8.16612C10.9803 8.2907 11.0501 8.45966 11.0501 8.63584C11.0501 8.81202 10.9803 8.98098 10.856 9.10556C10.7316 9.23014 10.563 9.30013 10.3872 9.30013H5.74689C5.57108 9.30013 5.40246 9.37011 5.27815 9.49469C5.15383 9.61927 5.08399 9.78823 5.08399 9.96441C5.08399 10.1406 5.15383 10.3096 5.27815 10.4341C5.40246 10.5587 5.57108 10.6287 5.74689 10.6287H8.3985C8.57431 10.6287 8.74293 10.6987 8.86725 10.8233C8.99156 10.9478 9.06141 11.1168 9.06141 11.293C9.06141 11.4692 8.99156 11.6381 8.86725 11.7627C8.74293 11.8873 8.57431 11.9573 8.3985 11.9573H3.09528C2.91946 11.9573 2.75085 12.0273 2.62653 12.1518C2.50221 12.2764 2.43237 12.4454 2.43237 12.6216C2.43237 12.7977 2.50221 12.9667 2.62653 13.0913C2.75085 13.2159 2.91946 13.2858 3.09528 13.2858H4.42108C4.5969 13.2858 4.76551 13.3558 4.88983 13.4804C5.01414 13.605 5.08399 13.7739 5.08399 13.9501C5.08399 14.1263 5.01414 14.2953 4.88983 14.4198C4.76551 14.5444 4.5969 14.6144 4.42108 14.6144H3.75818C3.58237 14.6144 3.41375 14.6844 3.28944 14.809C3.16512 14.9336 3.09528 15.1025 3.09528 15.2787C3.09528 15.4549 3.16512 15.6238 3.28944 15.7484C3.41375 15.873 3.58237 15.943 3.75818 15.943H5.64745C5.71903 16.2231 5.85527 16.4825 6.0452 16.7003C6.20614 16.8806 6.40335 17.0247 6.62386 17.1232C6.84437 17.2216 7.08319 17.2722 7.3246 17.2716C7.73311 17.2599 8.12908 17.1275 8.46283 16.8912C8.79658 16.6548 9.05324 16.325 9.20061 15.943H14.2652C14.3368 16.2231 14.473 16.4825 14.6629 16.7003C14.8239 16.8806 15.0211 17.0247 15.2416 17.1232C15.4621 17.2216 15.7009 17.2722 15.9423 17.2716C16.3509 17.2599 16.7468 17.1275 17.0806 16.8912C17.4143 16.6548 17.671 16.325 17.8184 15.943H19.1442C19.308 15.944 19.4665 15.8841 19.5889 15.7749C19.7113 15.6657 19.789 15.515 19.8071 15.3518L20.3175 10.7018C20.3357 10.5867 20.3195 10.4689 20.2711 10.363ZM7.3246 15.943C7.26963 15.9454 7.21483 15.9352 7.16432 15.9134C7.11381 15.8915 7.06888 15.8585 7.03292 15.8168C6.98088 15.7523 6.94281 15.6776 6.92113 15.5975C6.89945 15.5175 6.89462 15.4338 6.90697 15.3518C6.9239 15.1653 7.00426 14.9902 7.13459 14.856C7.26492 14.7218 7.43731 14.6365 7.6229 14.6144C7.67788 14.612 7.73267 14.6221 7.78318 14.644C7.8337 14.6659 7.87862 14.6989 7.91458 14.7406C7.96662 14.8051 8.00469 14.8798 8.02637 14.9598C8.04806 15.0399 8.05288 15.1236 8.04053 15.2056C8.0236 15.3921 7.94324 15.5672 7.81291 15.7014C7.68258 15.8356 7.51019 15.9209 7.3246 15.943ZM15.9423 15.943C15.8874 15.9454 15.8326 15.9352 15.7821 15.9134C15.7315 15.8915 15.6866 15.8585 15.6507 15.8168C15.5986 15.7523 15.5606 15.6776 15.5389 15.5975C15.5172 15.5175 15.5124 15.4338 15.5247 15.3518C15.5416 15.1653 15.622 14.9902 15.7523 14.856C15.8827 14.7218 16.0551 14.6365 16.2406 14.6144C16.2956 14.612 16.3504 14.6221 16.4009 14.644C16.4514 14.6659 16.4964 14.6989 16.5323 14.7406C16.5844 14.8051 16.6224 14.8798 16.6441 14.9598C16.6658 15.0399 16.6706 15.1236 16.6583 15.2056C16.6413 15.3921 16.561 15.5672 16.4307 15.7014C16.3003 15.8356 16.1279 15.9209 15.9423 15.943ZM18.9254 11.293H15.9954C15.9029 11.2928 15.8114 11.2731 15.7269 11.2354C15.6425 11.1976 15.5668 11.1426 15.5048 11.0738C15.4423 11.004 15.3952 10.9218 15.3666 10.8325C15.338 10.7432 15.3287 10.6488 15.3391 10.5556L15.5579 8.56277C15.5774 8.40074 15.6558 8.25159 15.778 8.14378C15.9003 8.03596 16.0579 7.97702 16.2208 7.9782H17.7653L19.005 10.735L18.9254 11.293Z" fill="#F49D0C"/>
<path id="Vector_2" d="M3.09543 10.6286C3.27132 10.6286 3.44001 10.5586 3.56438 10.4341C3.68876 10.3095 3.75863 10.1405 3.75863 9.96433C3.75863 9.78816 3.68876 9.61919 3.56438 9.49461C3.44001 9.37004 3.27132 9.30005 3.09543 9.30005H2.43224C2.25635 9.30005 2.08766 9.37004 1.96329 9.49461C1.83892 9.61919 1.76904 9.78816 1.76904 9.96433C1.76904 10.1405 1.83892 10.3095 1.96329 10.4341C2.08766 10.5586 2.25635 10.6286 2.43224 10.6286H3.09543Z" fill="#F49D0C"/>
</g>
</g>
</svg>
