<svg width="18" height="20" viewBox="0 0 18 20" fill="none" xmlns="http://www.w3.org/2000/svg">
<g id="Group">
<path id="Vector" d="M2.27293 10.0037C2.27293 7.18197 4.01955 4.76087 6.48822 3.76382L7.74788 1.23364C3.45376 1.84368 0.140625 5.54369 0.140625 10.0037C0.140625 14.0614 2.8831 17.4904 6.6117 18.5352L6.85398 16.3793C4.19373 15.4818 2.27293 12.9628 2.27293 10.0037Z" fill="#027371"/>
<path id="Vector_2" d="M17.8579 10.0035C17.8579 5.94663 15.1166 2.51828 11.3892 1.47266L11.1415 3.62695C13.8033 4.52365 15.7255 7.0433 15.7255 10.0035C15.7255 12.8088 13.9992 15.218 11.5534 16.2258L10.2588 18.7724C14.5489 18.1589 17.8579 14.4606 17.8579 10.0035Z" fill="#027371"/>
<path id="Vector_3" d="M14.07 8.93002C14.154 8.76483 14.146 8.58338 14.0491 8.42546C13.9522 8.26747 13.7801 8.2045 13.5948 8.2045H9.54198L10.4144 0.619701C10.4441 0.362558 10.2848 0.0961535 10.0365 0.0224558C9.98523 0.00726316 9.93332 0 9.88208 0C9.68524 0 9.4992 0.112013 9.40758 0.29599L3.92669 11.3091C3.84447 11.4743 3.85353 11.6942 3.95068 11.8512C4.0479 12.0081 4.21929 12.1359 4.40393 12.1359H8.40326L7.58339 19.4353C7.55474 19.6914 7.7134 19.9068 7.96034 19.9807C8.01105 19.9959 8.06243 20 8.11314 20C8.30957 20 8.49562 19.8909 8.58844 19.7083L14.07 8.93002Z" fill="#027371"/>
</g>
</svg>
