<svg width="18" height="14" viewBox="0 0 18 14" fill="none" xmlns="http://www.w3.org/2000/svg">
<path id="XMLID_370_" d="M15.875 3.25H15.25C14.905 3.25 14.625 3.53 14.625 3.875V5.75H12.75V4.5C12.75 3.80937 12.1906 3.25 11.5 3.25H9V2H11.5C11.845 2 12.125 1.72 12.125 1.375V0.75C12.125 0.405 11.845 0.125 11.5 0.125H4.625C4.28 0.125 4 0.405 4 0.75V1.375C4 1.72 4.28 2 4.625 2H7.125V3.25H4.625C3.93437 3.25 3.375 3.80937 3.375 4.5V7H2.125V5.125C2.125 4.78 1.845 4.5 1.5 4.5H0.875C0.53 4.5 0.25 4.78 0.25 5.125V10.75C0.25 11.095 0.53 11.375 0.875 11.375H1.5C1.845 11.375 2.125 11.095 2.125 10.75V8.875H3.375V10.495C3.375 10.8556 3.53063 11.1981 3.80188 11.4356L5.52188 12.9406C5.74938 13.14 6.04188 13.25 6.34438 13.25H11.5C12.1906 13.25 12.75 12.6906 12.75 12V10.125H14.625V12C14.625 12.345 14.905 12.625 15.25 12.625H15.875C16.9106 12.625 17.75 11.7856 17.75 10.75V5.125C17.75 4.08938 16.9106 3.25 15.875 3.25ZM10.145 8.59688L8.895 10.4719C8.70312 10.7594 8.375 10.75 8.375 10.75V8.875H7.125C6.89438 8.875 6.6825 8.74813 6.57375 8.545C6.465 8.34188 6.47688 8.095 6.605 7.90375L7.855 6.02875C8.04625 5.74063 8.375 5.75 8.375 5.75V7.625H9.625C9.85562 7.625 10.0675 7.75187 10.1762 7.955C10.285 8.15812 10.2731 8.405 10.145 8.59688Z" fill="#027371"/>
</svg>
