<svg width="24" height="24" viewBox="0 0 24 24" fill="none" xmlns="http://www.w3.org/2000/svg">
<g id="Icons/Facebook/Line">
<path id="Vector" fill-rule="evenodd" clip-rule="evenodd" d="M12 20C16.4183 20 20 16.4183 20 12C20 7.58172 16.4183 4 12 4C7.58172 4 4 7.58172 4 12C4 16.4183 7.58172 20 12 20ZM12 22C17.5228 22 22 17.5228 22 12C22 6.47715 17.5228 2 12 2C6.47715 2 2 6.47715 2 12C2 17.5228 6.47715 22 12 22Z" fill="white"/>
<path id="Vector_2" d="M12 10C12 9.44772 12.4477 9 13 9H14C14.5523 9 15 8.55229 15 8C15 7.44772 14.5523 7 14 7H13C11.3431 7 10 8.34315 10 10V12H9C8.44772 12 8 12.4477 8 13C8 13.5523 8.44771 14 9 14H10V20C10 20.5523 10.4477 21 11 21C11.5523 21 12 20.5523 12 20V14H14C14.5523 14 15 13.5523 15 13C15 12.4477 14.5523 12 14 12H12V10Z" fill="white"/>
</g>
</svg>
