<svg width="16" height="16" viewBox="0 0 16 16" fill="none" xmlns="http://www.w3.org/2000/svg">
<g id="Icons/Facebook/Line">
<path id="Vector" fill-rule="evenodd" clip-rule="evenodd" d="M7.99992 13.3335C10.9455 13.3335 13.3333 10.9457 13.3333 8.00016C13.3333 5.05464 10.9455 2.66683 7.99992 2.66683C5.0544 2.66683 2.66659 5.05464 2.66659 8.00016C2.66659 10.9457 5.0544 13.3335 7.99992 13.3335ZM7.99992 14.6668C11.6818 14.6668 14.6666 11.682 14.6666 8.00016C14.6666 4.31826 11.6818 1.3335 7.99992 1.3335C4.31802 1.3335 1.33325 4.31826 1.33325 8.00016C1.33325 11.682 4.31802 14.6668 7.99992 14.6668Z" fill="#7B7F95"/>
<path id="Vector_2" d="M7.99992 6.6665C7.99992 6.29832 8.29839 5.99984 8.66659 5.99984H9.33325C9.70145 5.99984 9.99992 5.70136 9.99992 5.33317C9.99992 4.96498 9.70145 4.6665 9.33325 4.6665H8.66659C7.56199 4.6665 6.66659 5.56194 6.66659 6.6665V7.99984H5.99992C5.63173 7.99984 5.33325 8.2983 5.33325 8.6665C5.33325 9.0347 5.63173 9.33317 5.99992 9.33317H6.66659V13.3332C6.66659 13.7014 6.96505 13.9998 7.33325 13.9998C7.70145 13.9998 7.99992 13.7014 7.99992 13.3332V9.33317H9.33325C9.70145 9.33317 9.99992 9.0347 9.99992 8.6665C9.99992 8.2983 9.70145 7.99984 9.33325 7.99984H7.99992V6.6665Z" fill="#7B7F95"/>
</g>
</svg>
