<svg width="20" height="20" viewBox="0 0 20 20" fill="none" xmlns="http://www.w3.org/2000/svg">
<g id="Group">
<path id="Vector" d="M12.2747 6.90949C12.2546 6.78902 12.1974 6.67785 12.1111 6.59148L9.34895 3.82934C9.12012 3.60051 8.74914 3.60051 8.52031 3.82934L7.55356 4.79609L6.86301 4.10555C6.63418 3.87672 6.2632 3.87672 6.03438 4.10555L3.54844 6.59148C3.35832 6.7816 3.32199 7.07672 3.46031 7.30727L4.05359 8.29602L0.786328 11.5633C0.5575 11.7921 0.5575 12.1631 0.786328 12.392L1.47688 13.0825L0.858125 13.7012C0.304766 14.2546 0 14.9903 0 15.7729V19.4141C0 19.7377 0.262344 20 0.585938 20C0.909531 20 1.17188 19.7377 1.17188 19.4141V15.7729C1.17188 15.3033 1.35473 14.8619 1.68676 14.5299L2.30551 13.9111L3.82469 15.4303C4.96699 16.5726 6.82563 16.5726 7.96789 15.4303L12.6635 10.7347C12.7973 10.6009 12.8582 10.4107 12.8271 10.224L12.2747 6.90949ZM7.13926 14.6017C6.45391 15.287 5.33871 15.2871 4.65332 14.6017L4.23898 14.1873L6.41516 12.0112V12.8063C6.41516 13.1299 6.6775 13.3922 7.00109 13.3922C7.32469 13.3922 7.58703 13.1299 7.58703 12.8063V11.5446L9.32652 12.4143L7.13926 14.6017Z" fill="#027371"/>
<path id="Vector_2" d="M19.1396 7.42926C18.742 6.74379 18.3502 6.17523 18.3337 6.15137C18.2243 5.99297 18.0441 5.89844 17.8516 5.89844C17.6591 5.89844 17.4789 5.99297 17.3695 6.15137C17.353 6.17523 16.9611 6.74379 16.5635 7.42926C15.7923 8.75863 15.7031 9.31016 15.7031 9.60938C15.7031 10.794 16.6669 11.7578 17.8516 11.7578C19.0362 11.7578 20 10.794 20 9.60938C20 9.31016 19.9108 8.75863 19.1396 7.42926Z" fill="#027371"/>
<path id="Vector_3" d="M17.575 2.92949C17.7315 2.92949 17.8787 2.86852 17.9893 2.75785C18.1 2.64715 18.161 2.5 18.1609 2.34355V0.585977C18.1609 0.26293 17.8981 7.81317e-05 17.575 3.90692e-05L16.5788 6.72489e-09C14.831 -7.81183e-05 13.1879 0.680547 11.952 1.91641L10.5225 3.34598L12.5941 5.41758L14.0237 3.98789C14.7062 3.30547 15.6135 2.92965 16.5786 2.92961L17.575 2.92949Z" fill="#027371"/>
</g>
</svg>
