<svg width="17" height="16" viewBox="0 0 17 16" fill="none" xmlns="http://www.w3.org/2000/svg">
<g id="Icons/Instagram/Line">
<path id="Vector" fill-rule="evenodd" clip-rule="evenodd" d="M10.9996 2.66683H5.66626C4.1935 2.66683 2.99959 3.86074 2.99959 5.3335V10.6668C2.99959 12.1396 4.1935 13.3335 5.66626 13.3335H10.9996C12.4723 13.3335 13.6663 12.1396 13.6663 10.6668V5.3335C13.6663 3.86074 12.4723 2.66683 10.9996 2.66683ZM5.66626 1.3335C3.45712 1.3335 1.66626 3.12436 1.66626 5.3335V10.6668C1.66626 12.876 3.45712 14.6668 5.66626 14.6668H10.9996C13.2087 14.6668 14.9996 12.876 14.9996 10.6668V5.3335C14.9996 3.12436 13.2087 1.3335 10.9996 1.3335H5.66626Z" fill="#7B7F95"/>
<path id="Vector_2" d="M11.6664 5.33333C12.0346 5.33333 12.3331 5.03485 12.3331 4.66667C12.3331 4.29848 12.0346 4 11.6664 4C11.2982 4 10.9998 4.29848 10.9998 4.66667C10.9998 5.03485 11.2982 5.33333 11.6664 5.33333Z" fill="#7B7F95"/>
<path id="Vector_3" fill-rule="evenodd" clip-rule="evenodd" d="M11.6664 7.99984C11.6664 9.84077 10.174 11.3332 8.33309 11.3332C6.49214 11.3332 4.99976 9.84077 4.99976 7.99984C4.99976 6.15889 6.49214 4.6665 8.33309 4.6665C10.174 4.6665 11.6664 6.15889 11.6664 7.99984ZM10.3331 7.99984C10.3331 9.10444 9.43769 9.99984 8.33309 9.99984C7.22849 9.99984 6.33309 9.10444 6.33309 7.99984C6.33309 6.89524 7.22849 5.99984 8.33309 5.99984C9.43769 5.99984 10.3331 6.89524 10.3331 7.99984Z" fill="#7B7F95"/>
</g>
</svg>
