<svg width="20" height="20" viewBox="0 0 20 20" fill="none" xmlns="http://www.w3.org/2000/svg">
<g id="Frame">
<path id="Vector" d="M16.5553 5.4117C15.6787 4.16087 14.4635 3.18606 13.0523 2.6017C13.8432 3.99336 14.4048 5.50338 14.7153 7.0737C15.4061 6.61208 16.026 6.0522 16.5553 5.4117ZM13.3263 7.8247C12.9877 5.73723 12.1609 3.75922 10.9133 2.0517C10.3065 1.98277 9.69398 1.98277 9.08726 2.0517C7.83962 3.75922 7.01285 5.73723 6.67426 7.8247C7.72606 8.27171 8.85742 8.50131 10.0003 8.4997C11.1803 8.4997 12.3043 8.2597 13.3263 7.8247ZM6.51426 9.3757C7.62977 9.78986 8.81036 10.0012 10.0003 9.9997C11.2263 9.9997 12.4003 9.7797 13.4863 9.3757C13.5454 10.6389 13.4272 11.9042 13.1353 13.1347C12.1081 13.3782 11.0559 13.5007 10.0003 13.4997C8.92126 13.4997 7.87226 13.3727 6.86626 13.1337C6.57402 11.9036 6.45554 10.6387 6.51426 9.3757ZM5.28526 7.0737C5.59588 5.50373 6.15741 3.99405 6.94826 2.6027C5.53706 3.18706 4.32184 4.16187 3.44526 5.4127C3.97426 6.0507 4.59426 6.6127 5.28526 7.0737ZM17.3343 6.7977C17.8995 8.09085 18.1114 9.51087 17.9483 10.9127C16.971 11.6262 15.902 12.2047 14.7703 12.6327C15.0003 11.333 15.0588 10.0087 14.9443 8.6937C15.8328 8.1871 16.6388 7.54772 17.3343 6.7977ZM2.66626 6.7977C3.36172 7.54773 4.16769 8.18711 5.05626 8.6937C4.94287 10.009 5.00136 11.3335 5.23026 12.6337C4.09849 12.2057 3.02955 11.6272 2.05226 10.9137C1.88944 9.51178 2.10167 8.09176 2.66726 6.7987L2.66626 6.7977ZM10.0003 14.9997C10.8983 14.9997 11.7783 14.9207 12.6333 14.7697C12.2052 15.9015 11.6267 16.9704 10.9133 17.9477C10.3065 18.0165 9.69398 18.0165 9.08726 17.9477C8.37379 16.9704 7.79526 15.9015 7.36726 14.7697C8.22226 14.9207 9.10226 14.9997 10.0003 14.9997ZM14.3573 14.3567C14.0364 15.4153 13.5987 16.4349 13.0523 17.3967C14.0264 16.9933 14.9115 16.402 15.657 15.6564C16.4025 14.9109 16.9939 14.0258 17.3973 13.0517C16.4443 13.5937 15.4263 14.0327 14.3573 14.3567ZM6.94826 17.3967C5.97416 16.9933 5.08906 16.402 4.34354 15.6564C3.59801 14.9109 3.00666 14.0258 2.60326 13.0517C3.55626 13.5937 4.57426 14.0327 5.64326 14.3567C5.96416 15.4153 6.40186 16.4349 6.94826 17.3967Z" fill="#0F766D"/>
</g>
</svg>
