<svg width="16" height="16" viewBox="0 0 16 16" fill="none" xmlns="http://www.w3.org/2000/svg">
<g id="Icons/LinkedIn/Line">
<path id="Vector" fill-rule="evenodd" clip-rule="evenodd" d="M11.9999 2.66683H3.99992C3.26354 2.66683 2.66659 3.26378 2.66659 4.00016V12.0002C2.66659 12.7366 3.26354 13.3335 3.99992 13.3335H11.9999C12.7363 13.3335 13.3333 12.7366 13.3333 12.0002V4.00016C13.3333 3.26378 12.7363 2.66683 11.9999 2.66683ZM3.99992 1.3335C2.52716 1.3335 1.33325 2.5274 1.33325 4.00016V12.0002C1.33325 13.4729 2.52716 14.6668 3.99992 14.6668H11.9999C13.4727 14.6668 14.6666 13.4729 14.6666 12.0002V4.00016C14.6666 2.5274 13.4727 1.3335 11.9999 1.3335H3.99992Z" fill="#7B7F95"/>
<path id="Vector_2" d="M4.66667 5.33333C5.03485 5.33333 5.33333 5.03485 5.33333 4.66667C5.33333 4.29848 5.03485 4 4.66667 4C4.29848 4 4 4.29848 4 4.66667C4 5.03485 4.29848 5.33333 4.66667 5.33333Z" fill="#7B7F95"/>
<path id="Vector_3" d="M4.66667 6.6665C4.29848 6.6665 4 6.96497 4 7.33317V11.3332C4 11.7014 4.29848 11.9998 4.66667 11.9998C5.03485 11.9998 5.33333 11.7014 5.33333 11.3332V7.33317C5.33333 6.96497 5.03485 6.6665 4.66667 6.6665Z" fill="#7B7F95"/>
<path id="Vector_4" d="M9.33341 7.99984C8.59701 7.99984 8.00008 8.59677 8.00008 9.33317V11.3332C8.00008 11.7014 7.70161 11.9998 7.33341 11.9998C6.96521 11.9998 6.66675 11.7014 6.66675 11.3332V7.33317C6.66675 6.96497 6.96521 6.6665 7.33341 6.6665C7.60368 6.6665 7.83635 6.8273 7.94101 7.05844C8.34628 6.80984 8.82315 6.6665 9.33341 6.6665C10.8061 6.6665 12.0001 7.86044 12.0001 9.33317V11.3332C12.0001 11.7014 11.7016 11.9998 11.3334 11.9998C10.9652 11.9998 10.6667 11.7014 10.6667 11.3332V9.33317C10.6667 8.59677 10.0698 7.99984 9.33341 7.99984Z" fill="#7B7F95"/>
</g>
</svg>
