<svg width="16" height="15" viewBox="0 0 16 15" fill="none" xmlns="http://www.w3.org/2000/svg">
<g id="Frame">
<path id="Vector" d="M11.6492 10.39L9.024 13.0207C8.90919 13.1358 8.77286 13.2272 8.6228 13.2895C8.47274 13.3518 8.31189 13.3839 8.14945 13.3839C7.98701 13.3839 7.82616 13.3518 7.6761 13.2895C7.52604 13.2272 7.38971 13.1358 7.27491 13.0207L4.6491 10.39C3.9569 9.69633 3.48552 8.81254 3.29455 7.8504C3.10359 6.88827 3.20162 5.89099 3.57626 4.98468C3.9509 4.07838 4.58531 3.30374 5.39928 2.75874C6.21324 2.21374 7.1702 1.92285 8.14914 1.92285C9.12808 1.92285 10.085 2.21374 10.899 2.75874C11.713 3.30374 12.3474 4.07838 12.722 4.98468C13.0967 5.89099 13.1947 6.88827 13.0037 7.8504C12.8128 8.81254 12.3414 9.69633 11.6492 10.39V10.39Z" stroke="#474957" stroke-width="1.06286" stroke-linecap="round" stroke-linejoin="round"/>
<path id="Vector_2" d="M10.0045 6.88368C10.0045 7.37698 9.80894 7.85008 9.46085 8.1989C9.11276 8.54772 8.64064 8.74368 8.14837 8.74368C7.65609 8.74368 7.18398 8.54772 6.83588 8.1989C6.48779 7.85008 6.29224 7.37698 6.29224 6.88368C6.29224 6.39038 6.48779 5.91728 6.83588 5.56846C7.18398 5.21965 7.65609 5.02368 8.14837 5.02368C8.64064 5.02368 9.11276 5.21965 9.46085 5.56846C9.80894 5.91728 10.0045 6.39038 10.0045 6.88368V6.88368Z" stroke="#474957" stroke-width="1.06286" stroke-linecap="round" stroke-linejoin="round"/>
</g>
</svg>
