<svg width="15" height="13" viewBox="0 0 15 13" fill="none" xmlns="http://www.w3.org/2000/svg">
<path id="Vector" d="M13.7706 4.52688C13.435 4.5925 13.1212 4.625 12.8125 4.625H3.10875L4.27563 1.99812C4.32563 1.88562 4.43812 1.8125 4.56125 1.8125H8.32313C8.1775 1.515 8.06125 1.20188 7.97687 0.875H4.56187C4.06812 0.875 3.62 1.16625 3.41938 1.6175L2.91625 2.75H0.9375C0.765 2.75 0.625 2.89 0.625 3.0625V3.4875C0.625 3.78563 0.835 4.04187 1.1275 4.10062L2.21938 4.31875L1.25 6.5V11.5C1.25 11.845 1.53 12.125 1.875 12.125H3.75C4.095 12.125 4.375 11.845 4.375 11.5V9.625H11.875V11.5C11.875 11.845 12.155 12.125 12.5 12.125H14.375C14.72 12.125 15 11.845 15 11.5V6.5L14.095 4.46312L13.7706 4.52688ZM3.75 8.0625C3.2325 8.0625 2.8125 7.6425 2.8125 7.125C2.8125 6.6075 3.2325 6.1875 3.75 6.1875C4.2675 6.1875 4.6875 6.6075 4.6875 7.125C4.6875 7.6425 4.2675 8.0625 3.75 8.0625ZM9.375 7.75H6.875C6.52938 7.75 6.25 7.47062 6.25 7.125C6.25 6.77938 6.52938 6.5 6.875 6.5H9.375C9.72062 6.5 10 6.77938 10 7.125C10 7.47062 9.72062 7.75 9.375 7.75ZM12.5 8.0625C11.9825 8.0625 11.5625 7.6425 11.5625 7.125C11.5625 6.6075 11.9825 6.1875 12.5 6.1875C13.0175 6.1875 13.4375 6.6075 13.4375 7.125C13.4375 7.6425 13.0175 8.0625 12.5 8.0625Z" fill="#027371"/>
</svg>
