<svg width="26" height="26" viewBox="0 0 26 26" fill="none" xmlns="http://www.w3.org/2000/svg">
<g filter="url(#filter0_d_306_3076)">
<path d="M17.7706 9.52688C17.435 9.5925 17.1213 9.625 16.8125 9.625H7.10875L8.27562 6.99812C8.32562 6.88563 8.43812 6.8125 8.56125 6.8125H12.3231C12.1775 6.515 12.0612 6.20188 11.9769 5.875H8.56187C8.06812 5.875 7.62 6.16625 7.41938 6.6175L6.91625 7.75H4.9375C4.765 7.75 4.625 7.89 4.625 8.0625V8.4875C4.625 8.78563 4.835 9.04187 5.1275 9.10062L6.21938 9.31875L5.25 11.5V16.5C5.25 16.845 5.53 17.125 5.875 17.125H7.75C8.095 17.125 8.375 16.845 8.375 16.5V14.625H15.875V16.5C15.875 16.845 16.155 17.125 16.5 17.125H18.375C18.72 17.125 19 16.845 19 16.5V11.5L18.095 9.46312L17.7706 9.52688ZM7.75 13.0625C7.2325 13.0625 6.8125 12.6425 6.8125 12.125C6.8125 11.6075 7.2325 11.1875 7.75 11.1875C8.2675 11.1875 8.6875 11.6075 8.6875 12.125C8.6875 12.6425 8.2675 13.0625 7.75 13.0625ZM13.375 12.75H10.875C10.5294 12.75 10.25 12.4706 10.25 12.125C10.25 11.7794 10.5294 11.5 10.875 11.5H13.375C13.7206 11.5 14 11.7794 14 12.125C14 12.4706 13.7206 12.75 13.375 12.75ZM16.5 13.0625C15.9825 13.0625 15.5625 12.6425 15.5625 12.125C15.5625 11.6075 15.9825 11.1875 16.5 11.1875C17.0175 11.1875 17.4375 11.6075 17.4375 12.125C17.4375 12.6425 17.0175 13.0625 16.5 13.0625Z" fill="#027371"/>
<path d="M12.75 4.625C12.75 2.38375 14.5712 0.5625 16.8125 0.5625C19.0538 0.5625 20.875 2.38375 20.875 4.625C20.875 5.215 20.75 5.77125 20.5244 6.27437L18.2231 3.515C17.8656 3.08938 17.3413 2.84625 16.7856 2.84625C16.35 2.84625 15.925 3 15.5887 3.27812C15.2025 3.59812 14.965 4.04938 14.92 4.55C14.875 5.05062 15.0275 5.53813 15.3481 5.91937L17.59 8.6075C17.3381 8.65625 17.08 8.6875 16.8125 8.6875C14.5712 8.6875 12.75 6.87313 12.75 4.625Z" fill="#027371"/>
<path d="M21.8681 9.34965L20.4306 10.5497L16.0681 5.3184C15.7368 4.92465 15.7868 4.3309 16.1868 3.99965C16.5868 3.6684 17.1743 3.72465 17.5056 4.1184L21.8681 9.34965Z" fill="#027371"/>
</g>
<defs>
<filter id="filter0_d_306_3076" x="0.625" y="0.5625" width="25.2422" height="24.5625" filterUnits="userSpaceOnUse" color-interpolation-filters="sRGB">
<feFlood flood-opacity="0" result="BackgroundImageFix"/>
<feColorMatrix in="SourceAlpha" type="matrix" values="0 0 0 0 0 0 0 0 0 0 0 0 0 0 0 0 0 0 127 0" result="hardAlpha"/>
<feOffset dy="4"/>
<feGaussianBlur stdDeviation="2"/>
<feComposite in2="hardAlpha" operator="out"/>
<feColorMatrix type="matrix" values="0 0 0 0 0 0 0 0 0 0 0 0 0 0 0 0 0 0 0.25 0"/>
<feBlend mode="normal" in2="BackgroundImageFix" result="effect1_dropShadow_306_3076"/>
<feBlend mode="normal" in="SourceGraphic" in2="effect1_dropShadow_306_3076" result="shape"/>
</filter>
</defs>
</svg>
