<svg width="21" height="16" viewBox="0 0 21 16" fill="none" xmlns="http://www.w3.org/2000/svg">
<g id="Frame">
<path id="Vector" fill-rule="evenodd" clip-rule="evenodd" d="M3.3252 8.00009C3.3252 7.80118 3.421 7.61041 3.59153 7.46976C3.76206 7.32911 3.99335 7.25009 4.23452 7.25009H14.7705L10.8665 4.03009C10.7059 3.88792 10.6184 3.69987 10.6226 3.50557C10.6267 3.31127 10.7222 3.12588 10.8888 2.98847C11.0554 2.85106 11.2801 2.77234 11.5157 2.76892C11.7513 2.76549 11.9793 2.83761 12.1517 2.97009L17.6076 7.47009C17.7779 7.61072 17.8735 7.80134 17.8735 8.00009C17.8735 8.19884 17.7779 8.38946 17.6076 8.53009L12.1517 13.0301C11.9793 13.1626 11.7513 13.2347 11.5157 13.2313C11.2801 13.2278 11.0554 13.1491 10.8888 13.0117C10.7222 12.8743 10.6267 12.6889 10.6226 12.4946C10.6184 12.3003 10.7059 12.1123 10.8665 11.9701L14.7705 8.75009H4.23452C3.99335 8.75009 3.76206 8.67107 3.59153 8.53042C3.421 8.38977 3.3252 8.199 3.3252 8.00009Z" fill="#027371"/>
</g>
</svg>
