<svg width="20" height="20" viewBox="0 0 20 20" fill="none" xmlns="http://www.w3.org/2000/svg">
<g id="fi_7201751">
<path id="Vector" d="M15.9996 2V5.052C15.9996 5.7884 15.4026 6.3854 14.6662 6.3854C13.9298 6.3854 13.333 5.7884 13.333 5.052V2C12.1572 2.515 11.333 3.6862 11.333 5.052C11.333 6.1386 11.8616 7.095 12.6662 7.7038V16C12.6662 17.1042 13.562 18 14.6662 18C15.7704 18 16.6662 17.1042 16.6662 16V7.7038C17.4716 7.095 17.9996 6.1386 17.9996 5.052C17.9996 3.6856 17.176 2.515 15.9996 2Z" fill="#F0FDFC"/>
<path id="Vector_2" d="M11.3334 11.3333V8.6665H4C2.8958 8.6665 2 9.5617 2 10.6659L2.0006 10.6665H2V15.3333H3.3334V17.3333C3.3334 17.7005 3.6334 17.9999 4 17.9999H5.3334C5.6998 17.9999 6 17.7005 6 17.3333V15.3333H11.3334V12.6665H6.6666V11.3333H11.3334ZM4.6666 12.8333C4.207 12.8333 3.8334 12.4603 3.8334 11.9999C3.8334 11.5389 4.207 11.1665 4.6666 11.1665C5.1264 11.1665 5.5 11.5389 5.5 11.9999C5.5 12.4603 5.1264 12.8333 4.6666 12.8333Z" fill="#F0FDFC"/>
<path id="Vector_3" d="M10 5.05205C10 4.45045 10.1264 3.87245 10.3412 3.33325H6.20964C5.65764 3.33325 5.15764 3.55725 4.79564 3.91925C4.61204 4.10345 4.46364 4.32345 4.36284 4.56765L3.21704 7.33325H10.6044C10.2142 6.64645 10 5.86785 10 5.05205Z" fill="#F0FDFC"/>
</g>
</svg>
