<svg width="18" height="17" viewBox="0 0 18 17" fill="none" xmlns="http://www.w3.org/2000/svg">
<g id="Frame">
<path id="Vector" d="M8.649 2.4887C8.90355 1.70559 10.0092 1.70559 10.2629 2.4887L11.1708 5.28784C11.2263 5.45832 11.3341 5.60685 11.4789 5.71222C11.6236 5.8176 11.7979 5.87441 11.9769 5.87454H14.9144C15.7367 5.87454 16.0778 6.92889 15.4134 7.41356L13.0375 9.14304C12.8925 9.2485 12.7844 9.39728 12.7289 9.56806C12.6735 9.73883 12.6734 9.92282 12.7287 10.0937L13.6366 12.8928C13.8911 13.6759 12.9959 14.3281 12.3299 13.8434L9.95402 12.1139C9.8091 12.0085 9.6346 11.9517 9.45552 11.9517C9.27643 11.9517 9.10193 12.0085 8.95701 12.1139L6.58117 13.8434C5.91593 14.3281 5.02159 13.6759 5.2753 12.8928L6.18321 10.0937C6.23851 9.92282 6.23842 9.73883 6.18293 9.56806C6.12744 9.39728 6.01942 9.2485 5.87435 9.14304L3.49936 7.41441C2.83497 6.92975 3.17692 5.87539 3.99828 5.87539H6.935C7.11408 5.87544 7.28858 5.81871 7.43352 5.71332C7.57847 5.60794 7.68642 5.4593 7.74194 5.28869L8.64985 2.48955L8.649 2.4887Z" fill="#F49D0C"/>
</g>
</svg>
