<svg width="20" height="12" viewBox="0 0 20 12" fill="none" xmlns="http://www.w3.org/2000/svg">
<g id="Group">
<path id="Vector" d="M1.29176 5.19891C0.44668 6.69187 0 8.39293 0 10.1181C0 10.4417 0.262344 10.7041 0.585938 10.7041H5.29297C5.61656 10.7041 5.87891 10.4417 5.87891 10.1181C5.87891 8.88691 6.41664 7.74707 7.34094 6.96934L4.21246 1.96289C3.01758 2.81293 2.01461 3.92184 1.29176 5.19891Z" fill="#027371"/>
<path id="Vector_2" d="M10.0005 0.118164C8.31641 0.118164 6.67098 0.539531 5.20605 1.34086L8.33492 6.34793C8.85641 6.11734 9.42277 5.99707 10.0005 5.99707C10.5782 5.99707 11.1445 6.11734 11.666 6.34793L14.7949 1.34086C13.33 0.539492 11.6845 0.118164 10.0005 0.118164Z" fill="#027371"/>
<path id="Vector_3" d="M18.7084 5.19891C17.9855 3.92184 16.9825 2.81293 15.7877 1.96289L12.6592 6.96934C13.5835 7.74707 14.1212 8.88687 14.1212 10.1181C14.1212 10.4417 14.3836 10.7041 14.7071 10.7041H19.4142C19.7378 10.7041 20.0001 10.4417 20.0001 10.1181C20.0001 8.39293 19.5534 6.69187 18.7084 5.19891Z" fill="#027371"/>
<path id="Vector_4" d="M12.0856 8.35748C12.0636 8.35572 11.5397 8.31377 10.9372 8.31256C9.7451 8.30904 9.3283 8.47072 9.11869 8.59174C8.71092 8.82713 8.41924 9.20724 8.2974 9.66205C8.17553 10.1169 8.23807 10.5919 8.4735 10.9996C8.70889 11.4074 9.089 11.699 9.54381 11.8209C9.69568 11.8616 9.84979 11.8817 10.0029 11.8817C10.3083 11.8817 10.6098 11.8016 10.8813 11.6448C11.091 11.5238 11.4383 11.2433 12.0324 10.2095C12.3326 9.68717 12.5582 9.21252 12.5677 9.19256C12.6501 9.01861 12.6419 8.81529 12.5457 8.64857C12.4495 8.48185 12.2774 8.37302 12.0856 8.35748Z" fill="#027371"/>
</g>
</svg>
