<svg width="20" height="20" viewBox="0 0 20 20" fill="none" xmlns="http://www.w3.org/2000/svg">
<path id="Vector" d="M2.36387 4.54548H1.93027V2.04938H5.51957C4.58391 2.50246 3.7311 3.10966 2.99684 3.8456C2.77429 4.06817 2.56304 4.30176 2.36387 4.54548ZM18.9615 0.736572C18.8211 0.736727 18.6865 0.792574 18.5872 0.89186C18.4879 0.991147 18.432 1.12576 18.4319 1.26618V5.32868C18.4331 5.46836 18.4894 5.60191 18.5886 5.70026C18.6878 5.7986 18.8218 5.85378 18.9615 5.85378C19.1012 5.85378 19.2352 5.7986 19.3344 5.70026C19.4336 5.60191 19.4899 5.46836 19.4911 5.32868V1.26618C19.491 1.12575 19.4351 0.991112 19.3358 0.891821C19.2365 0.79253 19.1018 0.736696 18.9614 0.736572H18.9615ZM1.53965 2.49556H0.507812V4.09919H1.53969L1.53965 2.49556ZM11.5455 5.46142C12.5266 5.86054 13.3665 6.54284 13.9582 7.42128C14.5499 8.29973 14.8665 9.33451 14.8677 10.3936C14.8677 13.3287 12.4799 15.7165 9.54484 15.7165C6.60981 15.7165 4.22207 13.3287 4.22207 10.3936C4.22207 7.4586 6.60988 5.07079 9.54492 5.07079H18.041V1.52392H9.54492C4.6541 1.52396 0.675195 5.50286 0.675195 10.3936C0.675195 15.2844 4.6541 19.2634 9.54488 19.2634C14.4357 19.2634 18.4146 15.2844 18.4146 10.3936C18.4177 8.63709 17.8961 6.91963 16.9168 5.46142H11.5455ZM12.466 9.18251C12.213 9.43373 11.9282 9.65077 11.6188 9.8281C11.6473 9.9324 11.6677 10.0387 11.68 10.1461C11.9376 10.2258 12.2057 10.2664 12.4753 10.2666H12.4953C13.1124 10.2619 13.7163 10.0883 14.2416 9.76446L14.4216 9.65153C14.4984 10.1612 14.4954 10.6798 14.4127 11.1885C13.8092 11.4591 13.1557 11.6003 12.4944 11.6031H12.4681C12.1111 11.6019 11.7557 11.5539 11.4111 11.4604C11.3574 11.5541 11.2968 11.6437 11.2297 11.7283C11.3554 11.9668 11.5162 12.185 11.7068 12.3757C12.145 12.8187 12.6995 13.1287 13.3064 13.2698L13.515 13.3169C13.209 13.7313 12.8405 14.0957 12.4226 14.397C11.7967 14.1584 11.2287 13.7894 10.7562 13.3147C10.505 13.0617 10.288 12.7769 10.1107 12.4676C10.0064 12.496 9.90013 12.5165 9.79274 12.5288C9.71305 12.7864 9.67244 13.0544 9.67227 13.324C9.67284 13.9479 9.84661 14.5594 10.1742 15.0904L10.2869 15.2701C9.77732 15.3472 9.25881 15.3443 8.75012 15.2615C8.47559 14.6496 8.33434 13.9863 8.33574 13.3156C8.33695 12.959 8.38488 12.604 8.47832 12.2599C8.38463 12.2062 8.29511 12.1456 8.21051 12.0786C7.972 12.2042 7.75374 12.3651 7.56305 12.5556C7.12006 12.9938 6.81009 13.5484 6.66895 14.1552L6.62176 14.3636C6.20734 14.0576 5.84298 13.6891 5.54172 13.2712C5.78037 12.6453 6.14927 12.0773 6.62399 11.6047C6.87701 11.3536 7.1618 11.1366 7.47109 10.9593C7.44267 10.855 7.4222 10.7487 7.40984 10.6413C7.15229 10.5616 6.88425 10.521 6.61465 10.5208H6.59859C5.98023 10.5251 5.37485 10.6987 4.84824 11.0229L4.66856 11.1356C4.59146 10.626 4.59435 10.1075 4.67715 9.59884C5.28064 9.32825 5.9341 9.18704 6.59547 9.18431H6.62129C6.97852 9.18544 7.33406 9.23338 7.67883 9.32689C7.73244 9.23319 7.79303 9.14367 7.86008 9.05907C7.73441 8.82057 7.57359 8.60232 7.38301 8.41165C6.94484 7.96866 6.39028 7.65869 5.7834 7.51755L5.57504 7.47032C5.88103 7.05594 6.24954 6.69161 6.66738 6.39036C7.29323 6.62899 7.86122 6.99789 8.33371 7.47263C8.58491 7.72562 8.80192 8.01039 8.97922 8.3197C9.08349 8.29127 9.18978 8.27079 9.29715 8.25845C9.37683 8.00091 9.41745 7.73288 9.41766 7.46329C9.41705 6.83939 9.2433 6.22789 8.91574 5.69689L8.80305 5.5172C9.04857 5.48004 9.29653 5.46139 9.54484 5.46142H10.3096C10.6037 6.09068 10.7555 6.77702 10.7542 7.47161C10.753 7.82827 10.7051 8.18323 10.6116 8.52743C10.7053 8.58108 10.7948 8.64166 10.8794 8.70868C11.1179 8.58301 11.3361 8.42219 11.5268 8.23161C11.9697 7.79343 12.2796 7.23889 12.4207 6.63204L12.4684 6.42165C12.8838 6.72594 13.2489 7.09361 13.5502 7.51122C13.3116 8.13898 12.9419 8.70872 12.466 9.18251ZM10.7629 10.3934C10.7629 10.1525 10.6914 9.91704 10.5576 9.71673C10.4237 9.51643 10.2335 9.36031 10.0109 9.26812C9.78835 9.17593 9.54344 9.15181 9.30716 9.19881C9.07088 9.24581 8.85385 9.36182 8.6835 9.53217C8.51316 9.70252 8.39715 9.91956 8.35016 10.1558C8.30316 10.3921 8.32729 10.637 8.41949 10.8596C8.51169 11.0822 8.66781 11.2724 8.86812 11.4062C9.06844 11.5401 9.30394 11.6115 9.54484 11.6115C9.86775 11.6111 10.1773 11.4827 10.4057 11.2544C10.634 11.0261 10.7625 10.7165 10.7629 10.3936L10.7629 10.3934Z" fill="#027371"/>
</svg>
