<svg width="17" height="16" viewBox="0 0 17 16" fill="none" xmlns="http://www.w3.org/2000/svg">
<g id="Icons/Twitter/Line">
<path id="Vector" fill-rule="evenodd" clip-rule="evenodd" d="M2.78757 9.3332C1.68509 9.33633 0.973416 10.5923 1.65261 11.5438C2.62529 12.9064 4.38913 14 7.33381 14C11.8972 14 15.5603 10.2811 15.0475 5.8874L15.7987 4.38487C16.3197 3.34285 15.4144 2.15748 14.272 2.38596L13.2795 2.58446C13.0163 2.44562 12.744 2.34085 12.5113 2.26494C12.0577 2.11701 11.5087 2 11.0005 2C10.0876 2 9.29974 2.23421 8.67361 2.70395C8.05461 3.16843 7.70594 3.77883 7.51461 4.33937C7.42641 4.59774 7.36767 4.85689 7.32999 5.10562C6.97581 4.99415 6.61467 4.84417 6.26111 4.66103C5.45897 4.24555 4.81034 3.71881 4.44444 3.25701C3.83055 2.4822 2.52959 2.53965 2.07307 3.54681C1.42965 4.96631 1.60615 6.64897 2.18451 8.0086C2.37836 8.46427 2.63053 8.91473 2.9386 9.3322C2.88586 9.3328 2.83541 9.33307 2.78757 9.3332ZM7.33374 12.6667C4.75818 12.6667 3.4264 11.7338 2.73777 10.7691C2.70683 10.7258 2.73803 10.6667 2.79127 10.6665C3.49183 10.6645 4.92983 10.6314 5.87823 10.0763C5.92728 10.0476 5.91649 9.97527 5.86262 9.9572C3.65184 9.21387 2.39515 6.06573 3.28741 4.09727C3.30787 4.05213 3.36853 4.04618 3.39931 4.08503C4.41856 5.37145 6.64709 6.63147 8.58601 6.66594C8.62807 6.66667 8.65987 6.62847 8.65347 6.58689C8.57534 6.08035 8.27701 3.33333 11.0004 3.33333C11.6507 3.33333 12.6183 3.65055 12.9747 3.97553C12.9912 3.99055 13.0135 3.99737 13.0354 3.993L14.5334 3.6934C14.5878 3.68252 14.6309 3.73897 14.6061 3.78859L13.677 5.64679C13.6705 5.65969 13.6685 5.6745 13.671 5.68871C14.3217 9.34667 11.3257 12.6667 7.33374 12.6667Z" fill="#7B7F95"/>
</g>
</svg>
