<svg width="20" height="20" viewBox="0 0 20 20" fill="none" xmlns="http://www.w3.org/2000/svg">
<g id="feedback-hand 1" clip-path="url(#clip0_7_5448)">
<path id="Vector" d="M10 13.7183L14.8575 15.6283C16.4517 16.255 17.5 17.7933 17.5 19.5058V20H3.78167L2.26417 18.6433C1.5 17.9283 1.46417 16.7208 2.1825 15.9517C2.9 15.1833 4.11 15.1433 4.87833 15.8608C4.90667 15.8875 5.76917 16.6092 6.66583 17.3475V10C6.66583 8.9875 7.56833 8.18667 8.6125 8.35583C9.43167 8.48917 9.99917 9.25833 9.99917 10.0892V13.7183H10ZM16.25 0H3.75C1.67917 0 0 1.67917 0 3.75V6.25C0 8.32083 1.67917 10 3.75 10H5C5 9.02083 5.42833 8.095 6.17417 7.46083C6.7525 6.96833 7.47667 6.69417 8.22667 6.67C8.22667 6.62917 8.23333 6.5875 8.24583 6.5475L8.6375 5.29083L7.64667 4.485C7.51333 4.37167 7.465 4.1875 7.525 4.02417C7.585 3.86 7.74167 3.75083 7.91583 3.75083H9.16583L9.60833 2.50917C9.66917 2.34583 9.825 2.23833 9.99917 2.23833C10.1733 2.23833 10.3292 2.34667 10.39 2.50917L10.8325 3.75083H12.0825C12.2575 3.75083 12.4142 3.86 12.4742 4.025C12.5342 4.19 12.485 4.37417 12.3508 4.48667L11.365 5.29L11.7725 6.53167C11.8283 6.7 11.7725 6.885 11.6317 6.9925C11.4908 7.1 11.2983 7.1075 11.15 7.01167L10.0025 6.26417L9.22083 6.7875C10.6092 7.17583 11.6258 8.49167 11.665 10.0008H16.2492C18.32 10.0008 19.9992 8.32167 19.9992 6.25083V3.75083C19.9992 1.68 18.32 0.000833333 16.2492 0.000833333L16.25 0ZM7.35167 4.48583L6.36583 5.28917L6.77333 6.53083C6.82917 6.69917 6.77333 6.88417 6.6325 6.99167C6.49167 7.09917 6.29917 7.10667 6.15083 7.01083L5.00333 6.26333L3.875 7.01833C3.805 7.065 3.72417 7.08833 3.64333 7.08833C3.555 7.08833 3.4675 7.06083 3.39333 7.005C3.25167 6.89917 3.1925 6.715 3.24583 6.54667L3.6375 5.29L2.64667 4.48417C2.51333 4.37083 2.465 4.18667 2.525 4.02333C2.585 3.85917 2.74167 3.75 2.91583 3.75H4.16583L4.60833 2.50833C4.66917 2.345 4.825 2.2375 4.99917 2.2375C5.17333 2.2375 5.32917 2.34583 5.39 2.50833L5.8325 3.75H7.0825C7.2575 3.75 7.41417 3.85917 7.47417 4.02417C7.53417 4.18917 7.48583 4.37333 7.35167 4.48583ZM17.3517 4.48583L16.3658 5.28917L16.7733 6.53083C16.8292 6.69917 16.7733 6.88417 16.6325 6.99167C16.4917 7.09917 16.2992 7.10667 16.1508 7.01083L15.0033 6.26333L13.875 7.01833C13.805 7.065 13.7242 7.08833 13.6433 7.08833C13.555 7.08833 13.4675 7.06083 13.3933 7.005C13.2517 6.89917 13.1925 6.715 13.2458 6.54667L13.6375 5.29L12.6467 4.48417C12.5133 4.37083 12.465 4.18667 12.525 4.02333C12.585 3.85917 12.7417 3.75 12.9158 3.75H14.1658L14.6083 2.50833C14.6692 2.345 14.825 2.2375 14.9992 2.2375C15.1733 2.2375 15.3292 2.34583 15.39 2.50833L15.8325 3.75H17.0825C17.2575 3.75 17.4142 3.85917 17.4742 4.02417C17.5342 4.18917 17.485 4.37333 17.3508 4.48583H17.3517Z" fill="#525468"/>
</g>
<defs>
<clipPath id="clip0_7_5448">
<rect width="20" height="20" fill="white"/>
</clipPath>
</defs>
</svg>
