<svg width="20" height="20" viewBox="0 0 20 20" fill="none" xmlns="http://www.w3.org/2000/svg">
<g id="fi_12289865">
<g id="Layer 2">
<path id="Vector" d="M16.847 3.86182C15.6589 2.48812 13.0986 1.66699 9.99969 1.66699H9.99886C6.89949 1.66699 4.33928 2.48731 3.15072 3.86182C1.17886 6.1429 1.17886 12.1911 3.15112 14.473C3.54383 14.9024 4.00722 15.2613 4.52116 15.5342L4.79826 17.2C4.84381 17.4747 4.95749 17.7336 5.12892 17.953C5.30035 18.1725 5.52404 18.3454 5.77956 18.4561C6.03508 18.5667 6.31426 18.6116 6.59158 18.5865C6.8689 18.5614 7.13551 18.4672 7.36703 18.3125L9.64404 16.794C9.78319 16.7043 9.94565 16.6576 10.1112 16.6597C13.1621 16.6393 15.68 15.8215 16.847 14.4722C18.8189 12.1911 18.8189 6.1429 16.847 3.86182ZM9.99886 4.79199C10.2049 4.79199 10.4063 4.85308 10.5776 4.96754C10.7489 5.082 10.8824 5.24469 10.9612 5.43503C11.0401 5.62537 11.0607 5.83481 11.0205 6.03688C10.9803 6.23894 10.8811 6.42455 10.7354 6.57023C10.5897 6.71591 10.4041 6.81512 10.2021 6.85531C10 6.8955 9.79057 6.87487 9.60023 6.79603C9.40989 6.71719 9.24721 6.58368 9.13275 6.41238C9.01829 6.24108 8.95719 6.03968 8.95719 5.83366C8.95719 5.69686 8.98413 5.56141 9.03647 5.43502C9.08882 5.30864 9.16555 5.1938 9.26228 5.09707C9.359 5.00035 9.47384 4.92362 9.60022 4.87127C9.72661 4.81892 9.86206 4.79199 9.99886 4.79199ZM10.8322 13.7503H9.16553C8.94451 13.7503 8.73255 13.6625 8.57627 13.5062C8.41999 13.35 8.33219 13.138 8.33219 12.917C8.33219 12.696 8.41999 12.484 8.57627 12.3277C8.73255 12.1715 8.94451 12.0837 9.16553 12.0837V9.58366C8.94451 9.58366 8.73255 9.49586 8.57627 9.33958C8.41999 9.1833 8.33219 8.97134 8.33219 8.75033C8.33219 8.52931 8.41999 8.31735 8.57627 8.16107C8.73255 8.00479 8.94451 7.91699 9.16553 7.91699H9.99886C10.1083 7.91696 10.2167 7.9385 10.3178 7.98037C10.4189 8.02224 10.5108 8.08362 10.5882 8.16101C10.6656 8.23839 10.7269 8.33027 10.7688 8.43139C10.8107 8.53251 10.8322 8.64088 10.8322 8.75033V12.0837C11.0532 12.0837 11.2652 12.1715 11.4214 12.3277C11.5777 12.484 11.6655 12.696 11.6655 12.917C11.6655 13.138 11.5777 13.35 11.4214 13.5062C11.2652 13.6625 11.0532 13.7503 10.8322 13.7503Z" fill="#525468"/>
</g>
</g>
</svg>
