<svg width="20" height="20" viewBox="0 0 20 20" fill="none" xmlns="http://www.w3.org/2000/svg">
<g id="fi_1017513">
<g id="Group">
<g id="Group_2">
<path id="Vector" d="M10.1951 8.89512C9.81922 9.02883 9.41406 8.74996 9.41406 8.34238V4.72656H6.62285C6.11711 4.72656 5.84926 5.32621 6.18625 5.70332C6.37852 5.91789 6.48438 6.19543 6.48438 6.48438C6.48438 7.13039 5.95852 7.65625 5.3125 7.65625C4.66648 7.65625 4.14062 7.13039 4.14062 6.48438C4.14062 6.19543 4.24648 5.91789 4.43875 5.70332C4.77574 5.32621 4.50789 4.72656 4.00215 4.72656H1.75781C0.788516 4.72656 0 5.51508 0 6.48438V13.5156C0 14.4849 0.788516 15.2734 1.75781 15.2734H2.96875C2.96875 16.5661 4.01988 17.6172 5.3125 17.6172C6.60512 17.6172 7.65625 16.5661 7.65625 15.2734H9.41406V11.6577C9.41406 11.2555 9.8325 10.9792 10.1951 11.105C10.923 11.3642 11.7572 10.7794 11.7578 10C11.7578 9.21957 10.9241 8.63531 10.1951 8.89512Z" fill="#525468"/>
</g>
</g>
<g id="Group_3">
<g id="Group_4">
<path id="Vector_2" d="M18.2422 4.72656H17.0312C17.0312 3.43395 15.9801 2.38281 14.6875 2.38281C13.3949 2.38281 12.3438 3.43395 12.3438 4.72656H10.5859V7.65625C11.8786 7.65625 12.9297 8.70738 12.9297 10C12.9297 11.2926 11.8786 12.3438 10.5859 12.3438V15.2734H18.2422C19.2115 15.2734 20 14.4849 20 13.5156V6.48438C20 5.51508 19.2115 4.72656 18.2422 4.72656Z" fill="#525468"/>
</g>
</g>
</g>
</svg>
