<svg width="20" height="21" viewBox="0 0 20 21" fill="none" xmlns="http://www.w3.org/2000/svg">
<g id="fi_14673188">
<g id="XMLID_1_">
<g id="XMLID_53_">
<path id="Vector" d="M7.95032 1.69336C7.34761 1.69336 6.85267 2.15636 6.80078 2.74711H9.10386C9.05197 2.15636 8.55303 1.69336 7.95032 1.69336Z" fill="#0F766D"/>
</g>
<g id="XMLID_54_">
<path id="Vector_2" d="M10.2273 15.4043H4.10836C3.94472 15.4043 3.809 15.2726 3.809 15.105C3.809 14.9413 3.94472 14.8056 4.10836 14.8056H10.355C10.8579 13.0454 12.4266 11.7282 14.3145 11.6005V5.6133C14.3145 4.9068 13.7397 4.33203 13.0332 4.33203H10.8938V4.48371C10.8938 5.40973 10.1394 6.16412 9.21344 6.16412H6.69481C5.76882 6.16412 5.01043 5.40973 5.01043 4.48371V4.33203H2.87501C2.16852 4.33203 1.59375 4.9068 1.59375 5.6133V17.9269C1.59375 18.6334 2.16852 19.2082 2.87501 19.2082H11.5444C10.6982 18.3899 10.1834 17.2484 10.1834 16.019C10.1834 15.8115 10.1993 15.6039 10.2273 15.4043ZM4.10963 8.41681H11.7978C11.9631 8.41681 12.0972 8.5509 12.0972 8.71617C12.0972 8.88144 11.9631 9.01553 11.7978 9.01553H4.10963C3.94436 9.01553 3.81027 8.88144 3.81027 8.71617C3.81027 8.5509 3.94436 8.41681 4.10963 8.41681ZM4.10963 11.2058H11.7978C11.9631 11.2058 12.0972 11.3398 12.0972 11.5051C12.0972 11.6704 11.9631 11.8045 11.7978 11.8045H4.10963C3.94436 11.8045 3.81027 11.6704 3.81027 11.5051C3.81027 11.3398 3.94436 11.2058 4.10963 11.2058Z" fill="#0F766D"/>
</g>
<g id="XMLID_58_">
<path id="Vector_3" d="M6.69504 5.56519H9.21367C9.80839 5.56519 10.2953 5.08222 10.2953 4.4835V4.03646C10.2953 4.03646 10.2953 4.03646 10.2953 4.03247C10.2953 4.03247 10.2953 4.03247 10.2953 4.02847V3.83689C10.2953 3.56547 10.0758 3.34595 9.80439 3.34595H6.10431C5.8329 3.34595 5.60938 3.56547 5.60938 3.83689V4.02447C5.61337 4.02847 5.61337 4.02847 5.61337 4.03247C5.61337 4.03646 5.61337 4.04046 5.60938 4.04445V4.4835C5.60938 5.08222 6.09632 5.56519 6.69504 5.56519Z" fill="#0F766D"/>
</g>
<g id="XMLID_59_">
<path id="Vector_4" d="M14.6122 12.2266C12.5207 12.2305 10.8203 13.9309 10.8203 16.0184C10.8203 17.7068 11.9539 19.2036 13.5784 19.6626C13.9097 19.7584 14.2569 19.8063 14.6162 19.8063C16.7037 19.8063 18.4041 18.106 18.4041 16.0184C18.4041 13.9269 16.7037 12.2266 14.6122 12.2266ZM16.0246 15.5605L14.4916 16.9217C14.4347 16.9719 14.3637 16.9971 14.2928 16.9971C14.2218 16.9971 14.1509 16.9719 14.094 16.9217L13.1994 16.1279C13.0759 16.0181 13.0646 15.8289 13.1745 15.7053C13.2836 15.5812 13.4727 15.5703 13.597 15.68L14.2928 16.2974L15.627 15.1126C15.7502 15.0037 15.9404 15.014 16.0496 15.1378C16.1595 15.2615 16.1482 15.4506 16.0246 15.5605Z" fill="#0F766D"/>
</g>
</g>
</g>
</svg>
