<svg width="20" height="20" viewBox="0 0 20 20" fill="none" xmlns="http://www.w3.org/2000/svg">
<g id="fi_6066105">
<g id="Group">
<path id="Vector" d="M8.0625 11.1312H4.375C4.025 11.1312 3.75 10.8562 3.75 10.5062C3.75 10.1625 4.025 9.8812 4.375 9.8812H7.325C7.15 9.5062 7.0125 9.11245 6.9125 8.69995H4.375C4.025 8.69995 3.75 8.4187 3.75 8.07495C3.75 7.7312 4.025 7.44995 4.375 7.44995H6.73125C6.725 7.3437 6.725 7.2437 6.725 7.13745C6.725 6.3937 6.85 5.6812 7.075 5.01245H3.5C2.25625 5.01245 1.25 6.02495 1.25 7.26245V13.75C1.25 14.9062 2.13125 15.8687 3.2625 15.9812V17.3C3.2625 17.6687 3.46875 17.9937 3.8 18.1562C3.93125 18.2187 4.075 18.25 4.2125 18.25C4.425 18.25 4.63125 18.1812 4.8 18.0437L6.20625 16.9375C6.96875 16.3312 7.93125 15.9937 8.9125 15.9937H13.2375C14.475 15.9937 15.4875 14.9875 15.4875 13.75V13.425C14.8188 13.65 14.1062 13.775 13.3625 13.775C11.2 13.775 9.275 12.7375 8.0625 11.1312ZM8.36875 13.5687H4.375C4.025 13.5687 3.75 13.2875 3.75 12.9437C3.75 12.6 4.025 12.3187 4.375 12.3187H8.36875C8.7125 12.3187 8.99375 12.6 8.99375 12.9437C8.99375 13.2875 8.7125 13.5687 8.36875 13.5687Z" fill="#525468"/>
<path id="Vector_2" d="M13.3641 1.75C10.3891 1.75 7.97656 4.16875 7.97656 7.1375C7.97656 10.1125 10.3891 12.525 13.3641 12.525C16.3328 12.525 18.7516 10.1125 18.7516 7.1375C18.7516 4.16875 16.3328 1.75 13.3641 1.75ZM13.3578 10.6062C13.0141 10.6062 12.7328 10.325 12.7328 9.98125C12.7328 9.6375 13.0078 9.35625 13.3516 9.35625H13.3578C13.7016 9.35625 13.9828 9.6375 13.9828 9.98125C13.9828 10.325 13.7016 10.6062 13.3578 10.6062ZM13.9891 7.71875V8.1C13.9891 8.44375 13.7078 8.725 13.3641 8.725C13.0203 8.725 12.7391 8.44375 12.7391 8.1V7.2125C12.7391 6.86875 13.0203 6.5875 13.3641 6.5875C13.6578 6.5875 13.9016 6.35 13.9016 6.05C13.9016 5.75625 13.6578 5.51875 13.3641 5.51875C13.0703 5.51875 12.8266 5.75625 12.8266 6.05C12.8266 6.4 12.5453 6.675 12.2016 6.675C11.8578 6.675 11.5766 6.4 11.5766 6.05C11.5766 5.06875 12.3766 4.26875 13.3641 4.26875C14.3453 4.26875 15.1516 5.06875 15.1516 6.05C15.1516 6.81875 14.6641 7.4625 13.9891 7.71875Z" fill="#525468"/>
</g>
</g>
</svg>
