<svg width="12" height="12" viewBox="0 0 12 12" fill="none" xmlns="http://www.w3.org/2000/svg">
<g id="fi_1950630">
<path id="Vector" d="M10.2622 1.01245C10.0631 0.813 9.79842 0.703125 9.5168 0.703125H9.04934V1.17188C9.04934 1.68881 8.62924 2.10938 8.11287 2.10938H3.89881C3.38243 2.10938 2.96234 1.68881 2.96234 1.17188V0.703125H2.49333C1.91306 0.703125 1.44047 1.17572 1.43981 1.75664L1.42969 10.9441C1.42936 11.2261 1.53881 11.4912 1.73782 11.6907C1.93688 11.8901 2.20158 12 2.4832 12H9.50665C10.0869 12 10.5595 11.5274 10.5602 10.9465L10.5703 1.75898C10.5706 1.47705 10.4612 1.21193 10.2622 1.01245ZM6.11939 4.21875H8.61438C8.80833 4.21875 8.96555 4.37616 8.96555 4.57031C8.96555 4.76447 8.80833 4.92188 8.61438 4.92188H6.11939C5.92545 4.92188 5.76823 4.76447 5.76823 4.57031C5.76823 4.37616 5.92545 4.21875 6.11939 4.21875ZM6.11939 6.5625H8.61438C8.80833 6.5625 8.96555 6.71991 8.96555 6.91406C8.96555 7.10822 8.80833 7.26562 8.61438 7.26562H6.11939C5.92545 7.26562 5.76823 7.10822 5.76823 6.91406C5.76823 6.71991 5.92545 6.5625 6.11939 6.5625ZM6.11939 8.90625H8.62442C8.81836 8.90625 8.97558 9.06366 8.97558 9.25781C8.97558 9.45197 8.81836 9.60938 8.62442 9.60938H6.11939C5.92545 9.60938 5.76823 9.45197 5.76823 9.25781C5.76823 9.06366 5.92545 8.90625 6.11939 8.90625ZM3.12729 4.23263C3.26445 4.09533 3.48677 4.09533 3.62393 4.23263L3.81488 4.4238L4.62474 3.61305C4.76189 3.47578 4.98422 3.47573 5.12135 3.61305C5.25849 3.75033 5.25849 3.97294 5.12135 4.11023L4.06317 5.16956C3.99731 5.23549 3.90799 5.27255 3.81485 5.27255C3.72171 5.27255 3.63239 5.23552 3.56653 5.16956L3.12727 4.72978C2.99013 4.59251 2.99013 4.3699 3.12729 4.23263ZM3.12729 6.75537C3.26445 6.61807 3.48677 6.61807 3.62393 6.75537L3.81488 6.94652L4.62474 6.13577C4.76187 5.9985 4.98422 5.9985 5.12135 6.13577C5.25849 6.27305 5.25849 6.49566 5.12135 6.63295L4.06317 7.6923C3.99734 7.75823 3.90799 7.79529 3.81485 7.79529C3.72171 7.79529 3.63239 7.75826 3.56653 7.6923L3.12727 7.25252C2.99013 7.11525 2.99013 6.89266 3.12729 6.75537ZM3.12729 9.09912C3.26445 8.96182 3.48677 8.96182 3.62393 9.09912L3.81488 9.29027L4.62474 8.47952C4.76187 8.34225 4.98422 8.34225 5.12135 8.47952C5.25849 8.6168 5.25849 8.83941 5.12135 8.9767L4.06317 10.0361C3.99734 10.102 3.90799 10.139 3.81485 10.139C3.72171 10.139 3.63239 10.102 3.56653 10.0361L3.12727 9.59627C2.99013 9.459 2.99013 9.23641 3.12729 9.09912Z" fill="#536AC3"/>
<path id="Vector_2" d="M3.66455 1.17188C3.66455 1.30132 3.76936 1.40625 3.89867 1.40625H8.11273C8.24204 1.40625 8.34685 1.30132 8.34685 1.17188V0.234375C8.34685 0.10493 8.24204 0 8.11273 0H3.89867C3.76936 0 3.66455 0.10493 3.66455 0.234375V1.17188Z" fill="#536AC3"/>
</g>
</svg>
