<svg width="20" height="16" viewBox="0 0 20 16" fill="none" xmlns="http://www.w3.org/2000/svg">
<g id="Group 1000006227">
<g id="Group 1000006226">
<g id="Group">
<g id="Group_2">
<path id="Vector" d="M19.9992 3.9673V1.91641C19.9992 0.859165 19.1929 0 18.1964 0H1.8044C0.808609 0 0 0.85836 0 1.91641V3.9673H19.9992Z" fill="white"/>
</g>
<g id="Group_3">
<path id="Vector_2" d="M0 6.28418V14.0843C0 15.1424 0.807851 16.0007 1.8044 16.0007H18.1971C19.1929 16.0007 20 15.1432 20 14.0843V6.28418H0ZM4.83953 13.362H2.128V11.3208H4.83953V13.362ZM9.18419 13.362H6.47266V11.3208H9.18419V13.362ZM13.5281 13.362H10.8166V11.3208H13.5281V13.362ZM17.8728 13.362H15.1612V11.3208H17.8728V13.362Z" fill="white"/>
</g>
</g>
</g>
</g>
</svg>
