<svg width="16" height="16" viewBox="0 0 16 16" fill="none" xmlns="http://www.w3.org/2000/svg">
<g id="cart-fill-frame">
<path id="cart-fill" fill-rule="evenodd" clip-rule="evenodd" d="M0 0.533333C0 0.238781 0.238781 0 0.533333 0H2.13333C2.37806 0 2.59139 0.166559 2.65074 0.403981L3.08308 2.13333H15.4667C15.6253 2.13333 15.7757 2.20397 15.8771 2.32606C15.9784 2.44815 16.0201 2.60901 15.9909 2.76495L14.3909 11.2983C14.3436 11.5505 14.1233 11.7333 13.8667 11.7333H12.8H5.33333H4.26667C4.01002 11.7333 3.78976 11.5505 3.74247 11.2983L2.1454 2.78059L1.71692 1.06667H0.533333C0.238781 1.06667 0 0.827885 0 0.533333ZM5.33333 11.7333C4.15512 11.7333 3.2 12.6885 3.2 13.8667C3.2 15.0449 4.15512 16 5.33333 16C6.51154 16 7.46666 15.0449 7.46666 13.8667C7.46666 12.6885 6.51154 11.7333 5.33333 11.7333ZM12.8 11.7333C11.6218 11.7333 10.6667 12.6885 10.6667 13.8667C10.6667 15.0449 11.6218 16 12.8 16C13.9782 16 14.9333 15.0449 14.9333 13.8667C14.9333 12.6885 13.9782 11.7333 12.8 11.7333ZM5.33333 12.8C4.74423 12.8 4.26667 13.2776 4.26667 13.8667C4.26667 14.4558 4.74423 14.9333 5.33333 14.9333C5.92244 14.9333 6.4 14.4558 6.4 13.8667C6.4 13.2776 5.92244 12.8 5.33333 12.8ZM12.8 12.8C12.2109 12.8 11.7333 13.2776 11.7333 13.8667C11.7333 14.4558 12.2109 14.9333 12.8 14.9333C13.3891 14.9333 13.8667 14.4558 13.8667 13.8667C13.8667 13.2776 13.3891 12.8 12.8 12.8Z" fill="#0F766D"/>
</g>
</svg>
