<svg width="24" height="26" viewBox="0 0 24 26" fill="none" xmlns="http://www.w3.org/2000/svg">
<g id="Group 1000003425">
<path id="Vector" fill-rule="evenodd" clip-rule="evenodd" d="M21.8411 0V6.16581H24V0H21.8411ZM2.1588 25.8456V19.6798H0V25.8456H2.1588ZM11.2152 20.3282L7.02772 19.2062L2.99253 20.3543V24.8226L6.27403 23.8837C6.47957 23.8249 6.69125 23.8275 6.89691 23.885L11.2876 25.1133C11.3848 25.1405 11.4753 25.1272 11.5603 25.0718L18.6964 20.417C19.2267 19.9692 19.2696 19.3224 18.6552 19.1849C18.5784 19.1677 18.5168 19.1739 18.4442 19.2065L12.5882 21.8391C12.5878 21.8395 12.3791 22.4148 11.8201 22.7054C11.4233 22.9116 10.9744 22.9972 10.5129 22.86L6.2366 21.7141C6.0145 21.6548 5.88249 21.4266 5.94185 21.2045C6.00121 20.9824 6.22939 20.8504 6.4515 20.9097L10.7501 22.0615C10.9894 22.1256 11.2302 22.0869 11.4302 21.9712C11.8602 21.7227 12.0075 21.1776 11.759 20.7472L11.7597 20.7468C11.643 20.547 11.4568 20.3929 11.2152 20.3282ZM14.0582 8.92449H15.5351L16.3723 8.29475V6.8692L14.3556 8.70488C14.2626 8.78957 14.1628 8.86281 14.0582 8.92449ZM12.0749 16.4731V14.0727H9.32836V16.4731L10.267 15.5345C10.5069 15.2946 10.8965 15.2946 11.1363 15.5345L12.0749 16.4731ZM16.4361 14.0727V19.1982L12.6837 20.8851C12.6474 20.689 12.5776 20.5014 12.4788 20.3304L12.4781 20.3308C12.2558 19.9466 11.8887 19.6466 11.4301 19.5238L7.14417 18.3753C7.07045 18.353 6.98964 18.3509 6.91008 18.3736L4.84651 18.9608V14.0727H8.49457V17.2882C8.49457 17.6779 8.94201 17.9357 9.28599 17.6855L10.7016 16.2787L12.0618 17.6389L12.0626 17.6381C12.1348 17.71 12.2223 17.7562 12.3156 17.7749L12.3156 17.7745C12.6152 17.8375 12.9086 17.6008 12.9086 17.2882V14.0727H16.4361ZM12.6377 5.37082H6.15746L5.56116 5.96712V8.32813L6.15746 8.92443H12.2157C12.0349 8.81805 11.9603 8.74547 11.8105 8.59916L11.8108 8.59886C11.1303 7.86109 11.1733 6.70382 11.9177 6.02624L12.6377 5.37082ZM13.5537 4.53709L14.5184 3.65897H3.15564C3.07894 3.65897 3.01464 3.72327 3.01464 3.79997V10.4952C3.01464 10.572 3.07894 10.6363 3.15564 10.6363H18.7778C18.8545 10.6363 18.9188 10.572 18.9188 10.4952V6.53601C18.3551 6.57081 17.7828 6.54924 17.2061 6.46807V8.50077C17.2061 8.65023 17.1274 8.78128 17.0092 8.85488L15.9209 9.67353C15.8461 9.72961 15.7585 9.75666 15.6717 9.7566V9.75821H5.98482C5.86873 9.75821 5.76366 9.71072 5.6881 9.63414L4.84949 8.79558C4.76808 8.71418 4.72744 8.6075 4.72744 8.50083L4.72738 5.79459C4.72738 5.6785 4.77488 5.57344 4.85145 5.49787L5.69007 4.65926C5.77147 4.57786 5.87814 4.53721 5.98482 4.53721L13.5537 4.53709ZM21.0074 5.40503H20.6658V5.4055C20.4855 5.40556 19.5056 5.76617 18.1189 5.71593C17.7168 5.70133 17.2948 5.65395 16.8505 5.56474C16.7189 5.53029 16.5729 5.56104 16.4648 5.65949L13.8134 8.07294C13.5927 8.26251 13.3764 8.3553 13.0908 8.34189C12.2173 8.30083 11.8401 7.22223 12.4778 6.64179L15.1241 4.23298C15.2653 4.10581 15.3612 4.03352 15.4785 3.8256C15.5871 3.63317 15.6402 3.44396 15.632 3.23222C15.6268 3.00653 15.4422 2.82519 15.2153 2.82519H10.7665L12.8503 1.15208C13.1861 0.882473 13.5666 0.790638 13.9952 0.759172C16.3953 0.582892 18.6472 0.608815 21.0074 0.713165V5.40503H21.0074Z" fill="#9F7AEA"/>
</g>
</svg>
