<svg width="24" height="24" viewBox="0 0 24 24" fill="none" xmlns="http://www.w3.org/2000/svg">
<g id="fi_5726470" clip-path="url(#clip0_7_5789)">
<g id="Group">
<g id="Group_2">
<g id="Group_3">
<g id="Group_4">
<path id="Vector" d="M7.33971 17.4696C6.6888 17.7535 5.93093 17.456 5.64705 16.805L5.42899 16.3051C4.92162 15.1417 5.20034 13.7816 6.12255 12.9205C6.81621 12.2728 6.99101 11.2312 6.54743 10.3876C6.06176 9.46387 4.95494 9.03416 3.97287 9.38807C2.93384 9.7618 2.35216 10.8836 2.64776 11.9407C2.6742 12.0352 2.70771 12.1293 2.74737 12.2203C3.03124 12.8712 2.73373 13.629 2.08277 13.9129C1.43187 14.1968 0.673992 13.8993 0.390117 13.2483C0.30307 13.0488 0.229382 12.8418 0.17107 12.6332C-0.485321 10.2854 0.801492 7.79694 3.10099 6.96866C5.28387 6.18205 7.7441 7.13737 8.82368 9.19087C9.80491 11.0572 9.41585 13.3639 7.87755 14.8002C7.75029 14.919 7.71359 15.1106 7.78615 15.277L8.00421 15.7769C8.28818 16.4278 7.99066 17.1857 7.33971 17.4696Z" fill="#FFD15B"/>
</g>
<path id="Vector_2" d="M8.86696 20.9765C8.21605 21.2604 7.45818 20.9628 7.1743 20.3119L7.17004 20.3021C6.88616 19.6512 7.18368 18.8934 7.83463 18.6095C8.48554 18.3256 9.24341 18.6231 9.52729 19.2741L9.53155 19.2838C9.81543 19.9348 9.51786 20.6926 8.86696 20.9765Z" fill="#FFD15B"/>
</g>
<g id="Group_5">
<g id="Group_6">
<path id="Vector_3" d="M1.21268 12.1792C1.27076 12.3879 1.34478 12.5946 1.43182 12.7941C1.63414 13.258 2.0771 13.5427 2.55054 13.5647C2.42726 13.7109 2.26962 13.8315 2.08245 13.9132C1.43192 14.1969 0.673807 13.8997 0.389838 13.2486C0.302792 13.049 0.229385 12.8421 0.17126 12.6334C-0.485646 10.2854 0.801635 7.79702 3.10085 6.96874C3.18321 6.93912 3.26604 6.91212 3.34929 6.8877C1.55829 7.94632 0.63626 10.117 1.21268 12.1792Z" fill="#FFC344"/>
<path id="Vector_4" d="M7.16433 12.4663C6.2422 13.3274 5.9632 14.6879 6.47058 15.8512L6.68855 16.351C6.89086 16.8149 7.33444 17.0993 7.80788 17.1213C7.68459 17.2675 7.52695 17.3881 7.33978 17.4698C6.68869 17.7537 5.93114 17.4563 5.64717 16.8052L5.4292 16.3054C4.92187 15.1421 5.20027 13.7819 6.12295 12.9205C6.81642 12.2726 6.99094 11.2317 6.54736 10.3881C6.1305 9.59454 5.2553 9.16554 4.39453 9.28522C4.57575 9.13681 4.7842 9.01714 5.01492 8.93407C5.997 8.58003 7.10372 9.00964 7.58939 9.93364C8.03292 10.7772 7.85784 11.8184 7.16433 12.4663Z" fill="#FFC344"/>
</g>
<path id="Vector_5" d="M9.33897 20.628C9.21569 20.7743 9.05805 20.8949 8.87088 20.9766C8.21979 21.2605 7.46224 20.9631 7.17827 20.312L7.17391 20.302C6.89018 19.6514 7.18736 18.8933 7.83846 18.6094C8.02568 18.5277 8.22129 18.4942 8.41235 18.5034C8.10658 18.8659 8.01325 19.3845 8.21529 19.8478L8.21965 19.8578C8.422 20.3217 8.86558 20.6061 9.33897 20.628Z" fill="#FFC344"/>
</g>
</g>
<g id="Group_7">
<g id="Group_8">
<g id="Group_9">
<path id="Vector_6" d="M17.5965 17.3447C16.9106 17.1609 16.5035 16.4558 16.6873 15.7699L16.8285 15.2431C17.157 14.0172 18.2228 13.1274 19.4807 13.029C20.4269 12.955 21.2128 12.2495 21.3919 11.3134C21.588 10.2883 20.9904 9.26239 20.0019 8.9269C18.9565 8.5714 17.8024 9.08595 17.3745 10.0968C17.3363 10.1871 17.3038 10.2816 17.2782 10.3774C17.0944 11.0634 16.3893 11.4705 15.7034 11.2867C15.0174 11.1029 14.6103 10.3978 14.7941 9.71187C14.8505 9.50159 14.9219 9.29384 15.0063 9.09434C15.9567 6.8494 18.5141 5.70584 20.8285 6.4917C23.0257 7.23743 24.3538 9.51809 23.9178 11.7967C23.5216 13.8678 21.7794 15.4288 19.6812 15.5929C19.5077 15.6065 19.3595 15.7334 19.3126 15.9087L19.1714 16.4356C18.9875 17.1214 18.2824 17.5285 17.5965 17.3447Z" fill="#6FD7A3"/>
</g>
<path id="Vector_7" d="M16.6057 21.0404C15.9198 20.8566 15.5127 20.1516 15.6965 19.4656L15.6992 19.4553C15.883 18.7694 16.5881 18.3623 17.2741 18.5461C17.96 18.7299 18.3671 19.435 18.1833 20.1209L18.1805 20.1312C17.9967 20.8172 17.2917 21.2242 16.6057 21.0404Z" fill="#6FD7A3"/>
</g>
<g id="Group_10">
<g id="Group_11">
<path id="Vector_8" d="M16.1041 9.3887C16.0195 9.58811 15.9485 9.79581 15.8922 10.0061C15.7612 10.495 15.9301 10.9937 16.2866 11.306C16.099 11.3435 15.9006 11.3396 15.7033 11.2867C15.0178 11.103 14.6103 10.3981 14.7941 9.71191C14.8505 9.50158 14.922 9.29402 15.0067 9.09466C15.9569 6.84916 18.5146 5.70597 20.8288 6.49164C20.9116 6.51981 20.9932 6.55033 21.0735 6.58314C19.0132 6.29439 16.939 7.41686 16.1041 9.3887Z" fill="#3EC3A4"/>
<path id="Vector_9" d="M20.5798 13.3236C19.322 13.4221 18.2557 14.3119 17.9273 15.5378L17.7861 16.0644C17.6552 16.5533 17.8247 17.0522 18.1811 17.3645C17.9936 17.402 17.7951 17.398 17.5979 17.3452C16.9117 17.1613 16.5049 16.4565 16.6887 15.7703L16.8298 15.2437C17.1583 14.0178 18.2239 13.1278 19.4824 13.0295C20.4285 12.9552 21.2139 12.25 21.3929 11.3139C21.5617 10.4336 21.1448 9.55257 20.3971 9.10955C20.6313 9.1065 20.8689 9.14288 21.1011 9.22172C22.0898 9.55711 22.6872 10.5829 22.491 11.6082C22.312 12.5443 21.526 13.2493 20.5798 13.3236Z" fill="#3EC3A4"/>
</g>
<path id="Vector_10" d="M17.189 21.0599C17.0014 21.0974 16.8029 21.0934 16.6057 21.0406C15.9195 20.8567 15.5127 20.1519 15.6965 19.4658L15.6993 19.4553C15.883 18.7698 16.588 18.3622 17.2741 18.5461C17.4714 18.5989 17.6452 18.6947 17.7889 18.821C17.3238 18.9138 16.9275 19.2611 16.7967 19.7494L16.7939 19.7599C16.663 20.2487 16.8325 20.7476 17.189 21.0599Z" fill="#3EC3A4"/>
</g>
</g>
<g id="Group_12">
<g id="Group_13">
<g id="Group_14">
<path id="Vector_11" d="M12.5775 15.6358C11.7802 15.6358 11.1339 14.9894 11.1339 14.1921V13.5798C11.1339 12.1548 12.0312 10.8801 13.3668 10.408C14.3713 10.0528 15.0187 9.05928 14.9409 7.99203C14.8557 6.82339 13.9095 5.88439 12.74 5.8078C11.503 5.7261 10.4008 6.61944 10.2305 7.84007C10.2153 7.94914 10.2076 8.06099 10.2076 8.17241C10.2076 8.96971 9.56127 9.61607 8.76397 9.61607C7.96667 9.61607 7.32031 8.96971 7.32031 8.17241C7.32031 7.928 7.33738 7.68191 7.37098 7.44102C7.74927 4.73024 10.1905 2.74691 12.9287 2.92658C15.5282 3.09683 17.6313 5.18422 17.8206 7.78208C17.9927 10.1432 16.5571 12.3424 14.3293 13.1301C14.145 13.1953 14.0212 13.376 14.0212 13.5798V14.1921C14.0212 14.9894 13.3748 15.6358 12.5775 15.6358Z" fill="#0573CE"/>
</g>
<path id="Vector_12" d="M12.5765 19.9317C11.7792 19.9317 11.1328 19.2854 11.1328 18.4881V18.4761C11.1328 17.6788 11.7792 17.0325 12.5765 17.0325C13.3738 17.0325 14.0201 17.6788 14.0201 18.4761V18.4881C14.0201 19.2854 13.3738 19.9317 12.5765 19.9317Z" fill="#0573CE"/>
</g>
<g id="Group_15">
<g id="Group_16">
<path id="Vector_13" d="M8.64711 7.44109C8.61322 7.68194 8.59662 7.92784 8.59662 8.1723C8.59662 8.74052 8.9247 9.23228 9.40208 9.46736C9.20956 9.56256 8.99323 9.61591 8.76392 9.61591C7.96709 9.61591 7.32031 8.96983 7.32031 8.1723C7.32031 7.92784 7.33761 7.68194 7.3715 7.44109C7.74936 4.7298 10.191 2.74675 12.929 2.92633C13.027 2.9328 13.1244 2.94217 13.221 2.95445C10.9027 3.24002 8.97955 5.06008 8.64711 7.44109Z" fill="#0067C5"/>
<path id="Vector_14" d="M14.6416 10.4077C13.3061 10.8801 12.4084 12.155 12.4084 13.5798V14.192C12.4084 14.7602 12.7372 15.252 13.2146 15.4871C13.0221 15.5823 12.8057 15.6357 12.5764 15.6357C11.7789 15.6357 11.1328 14.9895 11.1328 14.192V13.5798C11.1328 12.1549 12.0299 10.8801 13.366 10.4077C14.3705 10.0522 15.0173 9.05929 14.9394 7.99209C14.8666 6.98831 14.1585 6.15403 13.2189 5.89083C13.472 5.81943 13.7402 5.78986 14.015 5.8079C15.1846 5.88436 16.1307 6.82322 16.2158 7.99209C16.2936 9.05929 15.6461 10.0522 14.6416 10.4077Z" fill="#0067C5"/>
</g>
<path id="Vector_15" d="M13.2146 19.7822C13.0221 19.8774 12.8057 19.9308 12.5764 19.9308C11.7789 19.9308 11.1328 19.2847 11.1328 18.4871V18.4749C11.1328 17.678 11.7789 17.0312 12.5764 17.0312C12.8057 17.0312 13.0221 17.0846 13.2146 17.1798C12.7372 17.4156 12.4084 17.9074 12.4084 18.4749V18.4871C12.4084 19.0554 12.7372 19.5471 13.2146 19.7822Z" fill="#0067C5"/>
</g>
</g>
</g>
</g>
<defs>
<clipPath id="clip0_7_5789">
<rect width="24" height="24" fill="white"/>
</clipPath>
</defs>
</svg>
