<svg width="24" height="18" viewBox="0 0 24 18" fill="none" xmlns="http://www.w3.org/2000/svg">
<g id="Group 1000003419">
<g id="Group 1000003418">
<g id="40-Fast-delivery">
<path id="Vector" d="M23.9328 8.23133L22.0379 3.94418C21.9716 3.79214 21.8625 3.66261 21.724 3.5713C21.5855 3.47998 21.4235 3.4308 21.2576 3.42972H16.6704L16.9448 0.951748C16.9583 0.831456 16.9462 0.709668 16.9092 0.594396C16.8723 0.479125 16.8113 0.372982 16.7304 0.282952C16.6502 0.194129 16.5524 0.123066 16.4431 0.0743351C16.3338 0.0256039 16.2156 0.000282806 16.0959 0H4.2891C4.06169 0 3.8436 0.0903363 3.6828 0.251136C3.522 0.411935 3.43167 0.630026 3.43167 0.857431C3.43167 1.08484 3.522 1.30293 3.6828 1.46373C3.8436 1.62452 4.06169 1.71486 4.2891 1.71486H8.57625C8.80365 1.71486 9.02174 1.8052 9.18254 1.966C9.34334 2.1268 9.43368 2.34489 9.43368 2.57229C9.43368 2.7997 9.34334 3.01779 9.18254 3.17859C9.02174 3.33939 8.80365 3.42972 8.57625 3.42972H2.57424C2.34683 3.42972 2.12874 3.52006 1.96794 3.68086C1.80714 3.84166 1.71681 4.05975 1.71681 4.28715C1.71681 4.51456 1.80714 4.73265 1.96794 4.89345C2.12874 5.05425 2.34683 5.14458 2.57424 5.14458H11.1485C11.3759 5.14458 11.594 5.23492 11.7548 5.39572C11.9156 5.55652 12.006 5.77461 12.006 6.00201C12.006 6.22942 11.9156 6.44751 11.7548 6.60831C11.594 6.76911 11.3759 6.85944 11.1485 6.85944H5.14653C4.91912 6.85944 4.70103 6.94978 4.54023 7.11058C4.37943 7.27138 4.2891 7.48947 4.2891 7.71687C4.2891 7.94428 4.37943 8.16237 4.54023 8.32317C4.70103 8.48397 4.91912 8.57431 5.14653 8.57431H8.57625C8.80365 8.57431 9.02174 8.66464 9.18254 8.82544C9.34334 8.98624 9.43368 9.20433 9.43368 9.43174C9.43368 9.65914 9.34334 9.87723 9.18254 10.038C9.02174 10.1988 8.80365 10.2892 8.57625 10.2892H1.71681C1.4894 10.2892 1.27131 10.3795 1.11051 10.5403C0.949711 10.7011 0.859375 10.9192 0.859375 11.1466C0.859375 11.374 0.949711 11.5921 1.11051 11.7529C1.27131 11.9137 1.4894 12.004 1.71681 12.004H3.43167C3.65907 12.004 3.87716 12.0944 4.03796 12.2552C4.19876 12.416 4.2891 12.6341 4.2891 12.8615C4.2891 13.0889 4.19876 13.307 4.03796 13.4678C3.87716 13.6286 3.65907 13.7189 3.43167 13.7189H2.57424C2.34683 13.7189 2.12874 13.8092 1.96794 13.97C1.80714 14.1308 1.71681 14.3489 1.71681 14.5763C1.71681 14.8037 1.80714 15.0218 1.96794 15.1826C2.12874 15.3434 2.34683 15.4337 2.57424 15.4337H5.01791C5.1105 15.7954 5.28672 16.1302 5.53237 16.4112C5.74054 16.644 5.99562 16.83 6.28084 16.9571C6.56606 17.0842 6.87496 17.1495 7.18721 17.1486C7.7156 17.1335 8.22777 16.9627 8.65945 16.6576C9.09114 16.3526 9.42312 15.9268 9.61374 15.4337H16.1645C16.2571 15.7954 16.4333 16.1302 16.679 16.4112C16.8871 16.644 17.1422 16.83 17.4274 16.9571C17.7127 17.0842 18.0216 17.1495 18.3338 17.1486C18.8622 17.1335 19.3744 16.9627 19.806 16.6576C20.2377 16.3526 20.5697 15.9268 20.7603 15.4337H22.4752C22.6872 15.435 22.8921 15.3578 23.0504 15.2168C23.2088 15.0759 23.3093 14.8813 23.3326 14.6706L23.9928 8.66862C24.0164 8.52013 23.9955 8.368 23.9328 8.23133ZM7.18721 15.4337C7.11611 15.4368 7.04524 15.4238 6.9799 15.3955C6.91456 15.3673 6.85646 15.3247 6.80994 15.2708C6.74263 15.1876 6.69339 15.0912 6.66535 14.9879C6.6373 14.8845 6.63106 14.7765 6.64703 14.6706C6.66893 14.4299 6.77287 14.204 6.94145 14.0307C7.11002 13.8575 7.333 13.7474 7.57306 13.7189C7.64416 13.7158 7.71503 13.7289 7.78037 13.7571C7.84571 13.7853 7.90381 13.8279 7.95033 13.8818C8.01763 13.9651 8.06687 14.0614 8.09492 14.1648C8.12297 14.2681 8.12921 14.3761 8.11324 14.482C8.09134 14.7227 7.9874 14.9487 7.81882 15.1219C7.65024 15.2952 7.42726 15.4053 7.18721 15.4337ZM18.3338 15.4337C18.2627 15.4368 18.1918 15.4238 18.1265 15.3955C18.0612 15.3673 18.0031 15.3247 17.9565 15.2708C17.8892 15.1876 17.84 15.0912 17.8119 14.9879C17.7839 14.8845 17.7777 14.7765 17.7936 14.6706C17.8155 14.4299 17.9195 14.204 18.088 14.0307C18.2566 13.8575 18.4796 13.7474 18.7197 13.7189C18.7908 13.7158 18.8616 13.7289 18.927 13.7571C18.9923 13.7853 19.0504 13.8279 19.0969 13.8818C19.1642 13.9651 19.2135 14.0614 19.2415 14.1648C19.2696 14.2681 19.2758 14.3761 19.2598 14.482C19.2379 14.7227 19.134 14.9487 18.9654 15.1219C18.7968 15.2952 18.5739 15.4053 18.3338 15.4337ZM22.1922 9.43174H18.4024C18.2828 9.43145 18.1645 9.40613 18.0552 9.3574C17.9459 9.30867 17.8481 9.23761 17.7679 9.14878C17.687 9.05875 17.6261 8.95261 17.5891 8.83734C17.5522 8.72207 17.54 8.60028 17.5535 8.47999L17.8365 5.9077C17.8618 5.69856 17.9632 5.50605 18.1213 5.36688C18.2794 5.22771 18.4833 5.15164 18.6939 5.15316H20.6917L22.2951 8.71149L22.1922 9.43174Z" fill="#F49D0C"/>
<path id="Vector_2" d="M1.71486 8.57448C1.94227 8.57448 2.16036 8.48414 2.32116 8.32334C2.48196 8.16255 2.57229 7.94445 2.57229 7.71705C2.57229 7.48965 2.48196 7.27155 2.32116 7.11075C2.16036 6.94996 1.94227 6.85962 1.71486 6.85962H0.85743C0.630026 6.85962 0.411935 6.94996 0.251136 7.11075C0.0903361 7.27155 0 7.48965 0 7.71705C0 7.94445 0.0903361 8.16255 0.251136 8.32334C0.411935 8.48414 0.630026 8.57448 0.85743 8.57448H1.71486Z" fill="#F49D0C"/>
</g>
</g>
</g>
</svg>
