<svg width="24" height="24" viewBox="0 0 24 24" fill="none" xmlns="http://www.w3.org/2000/svg">
<path d="M11.9977 7.72852C9.64288 7.72852 7.72656 9.64443 7.72656 11.9997C7.72656 14.3546 9.64288 16.2709 11.9977 16.2709C14.3526 16.2709 16.2689 14.3546 16.2689 11.9997C16.2689 9.64443 14.3526 7.72852 11.9977 7.72852ZM14.8698 10.804C14.8698 10.804 11.6283 14.0455 11.6156 14.0582C11.3987 14.2752 10.9876 14.293 10.7528 14.0582L9.12566 12.4311C8.88732 12.1928 8.88732 11.8066 9.12566 11.5683C9.36401 11.3299 9.75014 11.3299 9.98848 11.5683L11.1842 12.764L14.007 9.94117C14.2454 9.70282 14.6315 9.70282 14.8698 9.94117C15.1082 10.1795 15.1082 10.5656 14.8698 10.804Z" fill="#0D9488"/>
<path d="M12.0009 5.28809C8.30018 5.28809 5.28906 8.29921 5.28906 11.9999C5.28906 15.7007 8.30018 18.7118 12.0009 18.7118C15.7017 18.7118 18.7128 15.7007 18.7128 11.9999C18.7128 8.29921 15.7017 5.28809 12.0009 5.28809ZM12.0009 17.4915C8.97312 17.4915 6.5094 15.0278 6.5094 11.9999C6.5094 8.97174 8.97312 6.50842 12.0009 6.50842C15.0287 6.50842 17.4924 8.97174 17.4924 11.9999C17.4924 15.0278 15.0287 17.4915 12.0009 17.4915Z" fill="#0D9488"/>
<path d="M22.6779 8.89672C21.5869 8.81821 21.0289 7.4715 21.7444 6.64394C22.2314 6.08223 22.2013 5.23054 21.6753 4.70498L19.295 2.32469C18.7691 1.79874 17.9166 1.76934 17.3557 2.25512C16.5241 2.97532 15.1807 2.41705 15.1033 1.32244C15.0508 0.580775 14.4272 0 13.6835 0H10.3169C9.57367 0 8.95 0.580727 8.89671 1.32233C8.8188 2.40717 7.46672 2.96773 6.64353 2.25517C6.08222 1.76894 5.22974 1.79913 4.70497 2.32469L2.32468 4.70498C1.79912 5.23009 1.76854 6.08174 2.25511 6.64384C2.97824 7.47925 2.41838 8.81891 1.32203 8.89672C0.580775 8.94995 0 9.57363 0 10.3169V13.6827C0 14.4264 0.580775 15.0509 1.32203 15.1033C2.41843 15.1811 2.97497 16.525 2.25516 17.3557C1.76854 17.9182 1.79912 18.7699 2.32468 19.295L4.70497 21.6753C5.22934 22.2004 6.08138 22.2323 6.64388 21.7445C7.47959 21.0198 8.8188 21.5807 8.89671 22.678C8.94994 23.4192 9.57361 24 10.3169 24H13.6835C14.4272 24 15.0508 23.4192 15.1033 22.678C15.18 21.5927 16.5146 21.0142 17.3557 21.7444C17.9166 22.2323 18.7691 22.2013 19.295 21.6753L21.6753 19.295C22.2013 18.7691 22.2314 17.9174 21.7445 17.3557C21.0201 16.5202 21.5801 15.1813 22.6772 15.1033C23.4192 15.0508 24 14.4264 24 13.6827V10.3169C24 9.57362 23.4193 8.95 22.6779 8.89672ZM12 19.9322C7.62631 19.9322 4.06779 16.3737 4.06779 12C4.06779 7.62632 7.62631 4.06779 12 4.06779C16.3737 4.06779 19.9322 7.62632 19.9322 12C19.9322 16.3737 16.3737 19.9322 12 19.9322Z" fill="#0D9488"/>
</svg>
