<svg width="20" height="20" viewBox="0 0 20 20" fill="none" xmlns="http://www.w3.org/2000/svg">
<g id="fi_2676818">
<rect x="0.5" y="0.5" width="19" height="19" stroke="white"/>
<path id="Vector" d="M16.683 2.5H3.31425C2.97486 2.50027 2.64285 2.59904 2.35851 2.78432C2.07417 2.96961 1.84972 3.23345 1.7124 3.54381C1.57509 3.85417 1.53081 4.19772 1.58495 4.53276C1.63908 4.8678 1.7893 5.17992 2.01737 5.43125L7.81112 11.8031V17.8125C7.81117 17.93 7.84433 18.045 7.90678 18.1445C7.96924 18.244 8.05847 18.3239 8.16425 18.375C8.24878 18.4167 8.34187 18.4381 8.43612 18.4375C8.57817 18.4374 8.71595 18.3889 8.82675 18.3L9.99862 17.3625L11.9517 15.8C12.0248 15.7415 12.0838 15.6673 12.1244 15.5829C12.165 15.4985 12.1861 15.4061 12.1861 15.3125V11.8031L17.9799 5.43125C18.2079 5.17992 18.3582 4.8678 18.4123 4.53276C18.4664 4.19772 18.4222 3.85417 18.2848 3.54381C18.1475 3.23345 17.9231 2.96961 17.6387 2.78432C17.3544 2.59904 17.0224 2.50027 16.683 2.5Z" fill="#09090B"/>
</g>
</svg>
