<svg width="13" height="15" viewBox="0 0 13 15" fill="none" xmlns="http://www.w3.org/2000/svg">
<g id="Group 1000005471">
<path id="Vector" fill-rule="evenodd" clip-rule="evenodd" d="M5.90224 14.9391L5.90489 14.94C6.07869 15.0159 6.17574 14.9982 6.17574 14.9982C6.17574 14.9982 6.27278 15.0159 6.44747 14.94L6.44924 14.9391L6.45453 14.9365L6.47041 14.9294C6.55416 14.8905 6.63682 14.8493 6.71832 14.8059C6.88242 14.7212 7.1118 14.5942 7.38618 14.4239C7.93318 14.0851 8.66103 13.5716 9.39242 12.8667C10.8534 11.4586 12.3515 9.25743 12.3515 6.17574C12.3515 5.36473 12.1917 4.56166 11.8814 3.81239C11.571 3.06311 11.1161 2.3823 10.5426 1.80883C9.96917 1.23536 9.28837 0.78046 8.53909 0.4701C7.78982 0.15974 6.98675 0 6.17574 0C5.36473 0 4.56166 0.15974 3.81239 0.4701C3.06311 0.78046 2.3823 1.23536 1.80883 1.80883C1.23536 2.3823 0.78046 3.06311 0.4701 3.81239C0.15974 4.56166 -1.2085e-08 5.36473 0 6.17574C0 9.25655 1.49806 11.4586 2.95994 12.8667C3.572 13.4546 4.24415 13.9765 4.96529 14.4239C5.24461 14.5973 5.53195 14.7575 5.82637 14.9038L5.88107 14.9294L5.89695 14.9365L5.90224 14.9391ZM6.17574 8.1608C6.70221 8.1608 7.20712 7.95166 7.57939 7.57939C7.95166 7.20712 8.1608 6.70221 8.1608 6.17574C8.1608 5.64927 7.95166 5.14436 7.57939 4.77209C7.20712 4.39982 6.70221 4.19068 6.17574 4.19068C5.64927 4.19068 5.14436 4.39982 4.77209 4.77209C4.39982 5.14436 4.19068 5.64927 4.19068 6.17574C4.19068 6.70221 4.39982 7.20712 4.77209 7.57939C5.14436 7.95166 5.64927 8.1608 6.17574 8.1608Z" fill="#CBCDD6"/>
</g>
</svg>
