<svg width="20" height="20" viewBox="0 0 20 20" fill="none" xmlns="http://www.w3.org/2000/svg">
<g id="fi_7201751">
<path id="Vector" d="M15.9986 2V5.052C15.9986 5.7884 15.4016 6.3854 14.6652 6.3854C13.9288 6.3854 13.332 5.7884 13.332 5.052V2C12.1562 2.515 11.332 3.6862 11.332 5.052C11.332 6.1386 11.8606 7.095 12.6652 7.7038V16C12.6652 17.1042 13.561 18 14.6652 18C15.7694 18 16.6652 17.1042 16.6652 16V7.7038C17.4706 7.095 17.9986 6.1386 17.9986 5.052C17.9986 3.6856 17.175 2.515 15.9986 2Z" fill="#09090B"/>
<path id="Vector_2" d="M11.3334 11.3338V8.66699H4C2.8958 8.66699 2 9.56219 2 10.6664L2.0006 10.667H2V15.3338H3.3334V17.3338C3.3334 17.701 3.6334 18.0004 4 18.0004H5.3334C5.6998 18.0004 6 17.701 6 17.3338V15.3338H11.3334V12.667H6.6666V11.3338H11.3334ZM4.6666 12.8338C4.207 12.8338 3.8334 12.4608 3.8334 12.0004C3.8334 11.5394 4.207 11.167 4.6666 11.167C5.1264 11.167 5.5 11.5394 5.5 12.0004C5.5 12.4608 5.1264 12.8338 4.6666 12.8338Z" fill="#09090B"/>
<path id="Vector_3" d="M9.99998 5.05205C9.99998 4.45045 10.1264 3.87245 10.3412 3.33325H6.20958C5.65758 3.33325 5.15758 3.55725 4.79558 3.91925C4.61198 4.10345 4.46358 4.32345 4.36278 4.56765L3.21698 7.33325H10.6044C10.2142 6.64645 9.99998 5.86785 9.99998 5.05205Z" fill="#09090B"/>
</g>
</svg>
